<?xml version="1.0" encoding="UTF-8" standalone="no"?>
<svg
   xmlns:dc="http://purl.org/dc/elements/1.1/"
   xmlns:cc="http://creativecommons.org/ns#"
   xmlns:rdf="http://www.w3.org/1999/02/22-rdf-syntax-ns#"
   xmlns:svg="http://www.w3.org/2000/svg"
   xmlns="http://www.w3.org/2000/svg"
   viewBox="0 0 980.64111 1091.5247"
   height="1091.5247"
   width="980.64111"
   id="svg2"
   version="1.1">
  <metadata
     id="metadata8">
    <rdf:RDF>
      <cc:Work
         rdf:about="">
        <dc:format>image/svg+xml</dc:format>
        <dc:type
           rdf:resource="http://purl.org/dc/dcmitype/StillImage" />
        <dc:title></dc:title>
      </cc:Work>
    </rdf:RDF>
  </metadata>
  <defs
     id="defs6" />
  <path
     id="path12"
     d="m 654.49049,1048.189 c 0.15855,-39.9749 -0.71406,-62.79517 -2.65537,-69.44287 -1.15343,-3.9497 -13.83503,-2.8798 -13.83503,1.1672 0,2.3218 -6.61796,15.1661 -7.81425,15.1661 -0.78353,0 -1.51896,1.5349 -5.58985,11.66667 -0.66296,1.65 -1.80606,3 -2.54022,3 -2.61241,0 -7.07957,-11.37867 -8.6135,-21.94017 -1.5557,-10.7114 -1.56338,-10.7261 -5.44838,-10.4369 -2.13977,0.1593 -4.35454,-0.4407 -4.92173,-1.3333 -1.66821,-2.6254 -1.27297,1.5106 0.92793,9.7104 1.08259,4.0333 1.975,10.6333 1.98314,14.66667 0.0141,6.985 2.4649,21.7909 8.11721,49.0375 2.69427,12.9876 3.41173,28.9493 1.35828,30.2184 -0.66443,0.4106 -1.63201,-2.404 -2.1502,-6.2547 -0.51819,-3.8507 -2.97457,-15.251 -5.45863,-25.334 -2.48405,-10.083 -4.51646,-20.0576 -4.51646,-22.1657 0,-2.1081 -0.8628,-6.2784 -1.91735,-9.2673 -1.05455,-2.9889 -1.89351,-7.7143 -1.86436,-10.5009 0.0291,-2.7867 -1.26119,-10.62997 -2.86739,-17.42967 l -2.92037,-12.3631 -2.48609,3.1606 c -1.7947,2.2816 -2.59619,5.8641 -2.88195,12.8815 l -0.39583,9.72097 -4.57029,0.4962 c -2.5136,0.273 -4.8425,0.7685 -5.1753,1.1013 -1.4588,1.4588 -5.8084,-2.5123 -8.4108,-7.67907 -4.0561,-8.0526 -11.7476,-17.1124 -14.3156,-16.8621 -1.2071,0.1176 -2.7947,0.089 -3.528,-0.063 -3.2912,-0.6842 -13.4557,0.295 -14.6,1.4064 -0.6967,0.6767 -2.6256,1.2304 -4.2864,1.2304 -1.6609,0 -3.6203,1.1221 -4.3543,2.4936 -1.1678,2.1821 -1.9842,2.3202 -6.5349,1.1056 -4.4713,-1.1935 -6.0075,-0.9674 -10.9576,1.6128 -3.1665,1.6505 -8.9097,5.694 -12.7626,8.9857 -6.0206,5.14357 -7.3917,5.77787 -9.7547,4.51327 -1.5122,-0.80927 -2.7495,-2.36517 -2.7495,-3.45757 0,-1.0923 -1.5581,-2.5784 -3.4624,-3.3025 -1.9043,-0.724 -3.7742,-2.5091 -4.1555,-3.967 -1.0731,-4.1037 -3.917,-3.1859 -10.4875,3.3847 -3.3194,3.3193 -6.6036,5.6839 -7.2983,5.2546 -0.6946,-0.4293 -1.263,-0.1452 -1.263,0.6314 0,0.7767 -0.5632,1.41207 -1.2516,1.41207 -0.6884,0 -1.6383,-2.54997 -2.1108,-5.66667 -1.028,-6.7805 -5.7964,-16.9855 -8.7772,-18.7842 -2.4848,-1.4994 -13.8919,1.4124 -16.1386,4.1195 -0.7723,0.9305 -2.7516,4.211 -4.3985,7.2901 -3.6292,6.7852 -5.566,7.6633 -7.2328,3.2792 -1.7227,-4.531 -3.7271,-5.4833 -4.751,-2.2573 -1.0494,3.3063 -3.1311,3.4777 -4.2841,0.3527 -1.29,-3.4965 -3.1331,-4.2408 -6.5953,-2.6633 -2.2415,1.0214 -4.57,0.9863 -8.2775,-0.1245 -7.6872,-2.3031 -13.1661,-1.884 -17.528,1.3409 -2.1472,1.5875 -5.2729,3.0375 -6.946,3.2222 -1.673,0.1847 -3.4647,0.3858 -3.9815,0.4469 -0.5167,0.061 -1.3479,2.3611 -1.8469,5.1111 -1.4286,7.87197 -5.1913,14.11427 -11.7448,19.48437 -5.9674,4.8898 -6.1112,4.9299 -10.1628,2.8348 -2.2604,-1.1689 -4.4386,-2.9822 -4.8405,-4.0296 -0.402,-1.0474 -2.0211,-1.8002 -3.5981,-1.6729 -4.9532,0.3999 -9.4746,-3.897 -14.2506,-13.54257 -2.5745,-5.1994 -5.5014,-9.353 -6.6167,-9.3899 -1.1,-0.036 -4.6403,-1.8551 -7.8673,-4.0418 -3.227,-2.187 -6.857,-3.9761 -8.0667,-3.9761 -1.2096,0 -3.0076,-0.75 -3.9956,-1.6667 -1.4631,-1.3576 -1.6507,-1.2515 -1.0115,0.572 0.4316,1.2313 1.2141,4.5313 1.7388,7.3333 0.5248,2.8021 1.7701,7.0498 2.7674,9.4393 2.3648,5.66567 1.1738,9.97727 -3.5225,12.75147 -5.122,3.0256 -6.4197,2.841 -13.3759,-1.9036 -6.0464,-4.124 -10.588,-4.5623 -19.362,-1.8684 -1.8178,0.5582 -4.5035,-0.4823 -8.2497,-3.196 -4.5977,-3.33057 -5.9287,-5.35787 -7.7278,-11.76967 -1.6962,-6.045 -3.0559,-8.2525 -6.1917,-10.0522 -4.1284,-2.3694 -11.1787,-3.2001 -9.9236,-1.1693 0.3865,0.6253 -0.1124,2.2516 -1.1086,3.6139 -1.577,2.1568 -2.2833,2.2619 -5.4629,0.8132 -2.0084,-0.9151 -3.7241,-1.4914 -3.8127,-1.2806 -2.6,6.1881 -8.1229,8.3078 -11.0863,4.2551 -2.0998,-2.8716 -2.2084,-1.431 -0.362,4.8037 2.8277,9.54797 8.0333,49.88487 7.1758,55.60317 -1.0578,7.0538 -2.83,7.38 -3.9179,0.7213 -0.4493,-2.75 -2.286,-12.8 -4.0816,-22.3333 -2.9794,-15.8186 -5.34,-26.2099 -13.933,-61.33337 -1.6147,-6.6 -3.7885,-17.09999 -4.8307,-23.3333 -3.6628,-21.90816 -7.3664,-32.557 -14.6511,-42.12586 -3.7701,-4.9523 -4.2036,-15.30068 -1.1676,-27.87414 3.1224,-12.9313 2.6433,-19.35546 -1.949,-26.1327 -4.8904,-7.21704 -5.0075,-11.31125 -0.7093,-24.79848 2.5837,-8.10724 5.1007,-12.60834 11.409,-20.40216 4.4517,-5.5 10.4502,-14.6172 13.3299,-20.26045 5.5137,-10.80483 8.5253,-13.25032 20.2039,-16.40621 3.1516,-0.85166 8.0881,-4.38147 13.6645,-9.77079 6.9734,-6.73944 9.1346,-9.82797 10.7391,-15.34705 2.6381,-9.07467 11.6941,-22.78827 17.7794,-26.92331 3.3567,-2.28091 6.6953,-3.30103 10.8687,-3.32095 5.4127,-0.0259 6.7396,-0.71714 13.0789,-6.81378 l 7.0551,-6.78502 -6.6268,-16.18622 c -11.8926,-29.04815 -12.6567,-30.7622 -17.3185,-38.85287 -7.2577,-12.59595 -15.395,-22.75815 -32.0456,-40.01948 -20.6946,-21.45376 -46.4921,-49.50265 -58.9867,-64.13459 -13.914,-16.29402 -22.7345,-31.28549 -26.4574,-44.96732 -0.966,-3.55009 -2.7131,-6.78804 -3.8824,-7.19545 -1.1694,-0.4074 -3.6261,-2.11661 -5.4594,-3.79823 -1.8334,-1.68162 -12.3334,-7.55478 -23.3334,-13.05146 C 93.7231,456.78034 64.2202,438.31302 54.3979,429.68893 44.5977,421.08423 27.0529,399.56917 22.4151,390.46861 16.269,378.40855 13.9478,365.11166 13.4195,338.93767 L 12.9994,318.12921 6.5412,303.60434 0.083,289.07947 0.041,272.95423 0,256.82899 6.516,243.6209 c 5.5149,-11.17885 8.2561,-14.91953 17.8421,-24.34768 19.8567,-19.52965 32.5687,-22.73715 60.9753,-15.38532 11.5102,2.97893 41.3991,6.35824 43.2761,4.89289 0.3352,-0.26168 -0.447,-2.10153 -1.7382,-4.08854 -1.2911,-1.98703 -5.713,-10.51278 -9.8263,-18.94611 -8.0664,-16.53825 -24.6723,-41.33333 -27.6819,-41.33333 -2.5824,0 -3.7367,4.50918 -2.71,10.58606 1.4439,8.54647 -3.0254,8.77087 -8.6531,0.43446 -1.8333,-2.71575 -4.9557,-6.80415 -6.9387,-9.08534 -5.2643,-6.05606 -8.1619,-15.70973 -7.9102,-26.35362 0.3641,-15.39198 6.1405,-23.416755 22.2426,-30.899905 9.5586,-4.44216 19.156,-10.41086 29.9397,-18.61961 8.9862,-6.84051 13.4152,-7.81224 46.3298,-10.16478 24.0623,-1.71983 29.8083,-0.84505 43.5718,6.63347 5.1874,2.81863 13.6317,6.71681 18.765,8.66262 6.1954,2.34837 12.9197,6.43501 20,12.15488 21.862,17.661125 39.5891,23.959495 70.6667,25.107615 11,0.40637 22.4,0.19719 25.3333,-0.46487 2.9334,-0.66205 9.3419,-2.14846 14.2412,-3.30313 10.6153,-2.50184 19.4395,-3.24677 50.4255,-4.25691 26.6063,-0.86734 26.0416,-0.64429 32.1285,-12.691975 5.1641,-10.22124 5.8462,-26.00796 1.6041,-37.1247 -6.3852,-16.733169 -5.1962,-24.110359 6.1625,-38.235369 11.1347,-13.8464196 32.1397,-19.4544496 58.4569,-15.6071996 11.02,1.61098 28.0953,7.72374 29.9829,10.7335096 0.9894,1.57762 23.2511,14.2878 36.4946,20.83643 3.7562,1.85738 10.9562,6.03429 16,9.28205 5.04377,3.24775 10.78144,6.89929 12.75038,8.11453 1.96894,1.21525 9.60971,7.321289 16.97948,13.568989 7.36979,6.2477 14.02224,11.35945 14.78324,11.35945 0.761,0 3.92023,2.30054 7.02051,5.11228 3.10028,2.81176 8.93688,7.68002 12.97021,10.81834 9.93535,7.73065 57.14943,51.824985 75.74075,70.736055 17.37893,17.67783 23.51723,25.52431 45.94691,58.73316 24.14764,35.75241 29.52626,46.09453 32.31332,62.13263 1.25533,7.22381 2.43069,16.73421 2.61192,21.13421 0.18122,4.4 0.78693,11.84108 1.34604,16.53573 l 1.01654,8.53572 -6.23988,-0.85526 c -6.00541,-0.82314 -6.20508,-0.74307 -5.31385,2.13093 0.50931,1.64241 2.5792,6.28621 4.59977,10.31955 11.34466,22.64556 18.60152,52.32973 34.0627,139.33333 6.83546,38.46475 7.11802,39.53107 14.56856,54.97768 12.2703,25.43904 19.93253,35.56128 50.27256,66.41296 15.1756,15.43151 32.1638,31.93151 37.7515,36.66667 11.9011,10.08529 18.3627,18.50532 21.454,27.9565 1.7365,5.30906 1.9,7.52464 0.7424,10.06515 -1.3681,3.00265 -0.9706,3.64875 5.0787,8.25597 5.2291,3.98258 6.5773,5.81132 6.6338,8.9984 0.069,3.91822 -4.2186,12.64675 -6.2328,12.68708 -0.5608,0.0107 -1.8249,0.53083 -2.8092,1.15464 -1.4972,0.94892 -1.4972,1.61207 0,4.05906 1.6212,2.64972 1.409,3.26768 -2.2568,6.5701 -3.8991,3.51268 -12.0941,5.98743 -40.6203,12.26658 -4.0333,0.88781 -7.7268,1.83556 -8.2077,2.10609 -1.0764,0.60553 4.3107,18.50984 19.3558,64.33051 11.7139,35.67485 18.1852,58.31961 18.1852,63.63396 0,1.61066 2.3883,10.58365 5.3073,19.93996 2.919,9.3563 6.5143,23.3656 7.9895,31.13174 1.4753,7.76616 4.2736,22.22028 6.2184,32.12025 1.9449,9.89999 4.015,22.06849 4.6003,27.04099 0.5853,4.9726 1.4029,10.1083 1.8169,11.4127 1.1169,3.519 4.6774,34.66847 4.7079,41.18757 0.023,4.871 -0.4156,5.7522 -3.2107,6.4537 -5.134,1.2886 -7.71,-0.1891 -18.2203,-10.4517 -12.0468,-11.7629 -23.1363,-28.99137 -25.2668,-39.25377 -1.1142,-5.3668 -1.921,-6.9443 -2.9999,-5.8653 -0.8118,0.8117 -3.4316,1.4758 -5.8219,1.4758 -4.7319,0 -9.6824,-4.2011 -13.3549,-11.3333 -1.1328,-2.2 -4.1914,-6.2255 -6.7969,-8.9457 -4.6104,-4.81319 -4.818,-5.49159 -7.7528,-25.33329 -1.6585,-11.21321 -3.6036,-23.68767 -4.3225,-27.721 -2.34398,-13.15243 -8.57651,-44.65667 -8.91518,-45.06489 -0.18169,-0.21903 -1.96992,0.0133 -3.97381,0.51622 -4.15376,1.04252 -4.15391,1.83478 -0.004,23.21534 1.20972,6.23333 2.53263,13.88333 2.93981,17 0.71303,5.45772 0.60678,5.66666 -2.88181,5.66666 -2.61332,0 -5.94729,-2.23272 -11.97047,-8.01646 -10.08878,-9.68776 -14.86516,-18.0817 -16.12308,-28.3345 -1.01909,-8.30618 -2.7666,-10.66946 -5.31372,-7.18608 -0.88625,1.21204 -1.92848,2.20371 -2.31602,2.20371 -1.55539,0 -22.09452,-32.16604 -28.39856,-44.47453 -8.41611,-16.4323 -14.41407,-23.68543 -27.93615,-33.78223 -17.06345,-12.74113 -33.37189,-26.74492 -35.26428,-30.28089 -1.54835,-2.8931 -2.91216,-3.3616 -11.90883,-4.09098 -5.58859,-0.45302 -14.6607,-2.38762 -20.1607,-4.2991 -10.49673,-3.64806 -12.48784,-3.84932 -23.40396,-2.36578 -4.77228,0.64858 -9.24444,0.22232 -15.33333,-1.46148 -5.89578,-1.6304 -13.62212,-2.40873 -24.59604,-2.47773 -14.04547,-0.0883 -16.61407,-0.46352 -21.02676,-3.07144 -4.01674,-2.37388 -6.22888,-2.80605 -11.00942,-2.15081 -5.30933,0.72773 -6.76941,0.29818 -12.97324,-3.81662 -4.6459,-3.08148 -9.33842,-4.94692 -13.99058,-5.56177 -6.41875,-0.84833 -7,-0.7038 -7,1.74052 0,1.46613 1.17106,3.29241 2.60236,4.05843 2.19346,1.1739 2.49221,2.38592 1.90129,7.71357 -0.485,4.37271 0.32661,10.2248 2.63336,18.98751 1.83395,6.96666 3.74972,16.36232 4.25728,20.87921 0.84987,7.56332 1.30556,8.45996 5.76427,11.3422 l 4.84144,3.12965 0.37844,14.32447 c 0.2836,10.73475 0.81656,14.32447 2.12668,14.32447 0.96153,0 2.83422,1.2 4.16154,2.66666 2.58227,2.85338 5.49631,3.49195 6.22223,1.36352 0.24444,-0.71672 2.29956,-1.67274 4.56693,-2.12449 l 4.1225,-0.82136 0.84518,15.12451 c 0.6693,11.9768 1.30106,15.40198 3.0356,16.45782 7.18764,4.37523 7.46066,4.94028 5.80243,12.00904 -1.65497,7.05482 -3.14089,24.18682 -3.21621,37.08147 -0.044,7.52035 0.13972,7.92741 6.01552,13.33333 3.33346,3.0669 7.23346,6.24243 8.66666,7.05675 2.43752,1.38496 2.61432,3.15032 2.73732,27.33338 0.0723,14.21899 0.88275,33.05269 1.80096,41.85269 3.219,30.85047 -0.0849,94.68577 -5.16346,99.76427 -0.61683,0.6169 -1.04219,-18.8778 -0.94526,-43.3214 z m -62.24625,-76.02617 c -0.42563,-1.0637 -0.74157,-0.7477 -0.80555,0.8055 -0.0579,1.4056 0.25724,2.1931 0.7003,1.75 0.44305,-0.443 0.49041,-1.593 0.1052,-2.5555 z m -174.92154,-5.1171 c -0.6477,-2.0408 -1.3394,-2.4828 -2.3319,-1.4903 -0.9925,0.9925 -0.8968,2.0306 0.3225,3.4997 2.2224,2.6779 3.19,1.7103 2.0094,-2.0094 z M 236.211,795.51262 c -1.3757,-1.37575 -3.4126,1.02501 -2.6207,3.08883 0.7209,1.87854 0.9414,1.8633 2.064,-0.1427 0.6913,-1.23528 0.9418,-2.56104 0.5567,-2.94613 z m 2.7613,-17.23871 c -0.443,-0.44305 -1.593,-0.49041 -2.5555,-0.1052 -1.0637,0.42563 -0.7477,0.74158 0.8055,0.80555 1.4056,0.0579 2.1931,-0.25724 1.75,-0.70029 z m 54.215,-39.04186 c 4.8931,-5.10734 4.5242,-11.28768 -0.7099,-11.89391 -2.612,-0.30252 -4.2041,0.55927 -6.1584,3.33333 -3.8713,5.49523 -4.9563,9.8512 -2.7949,11.22071 3.1919,2.02252 5.8879,1.28036 9.6632,-2.66013 z m -29.2923,-10.9375 c 4.948,-5.88042 4.083,-13.21508 -1.5586,-13.21508 -2.5809,0 -8.3094,6.47848 -11.0361,12.48092 -2.1678,4.77211 -2.1789,5.31482 -0.1526,7.43986 2.0656,2.1663 2.3814,2.15732 5.7473,-0.16355 1.9589,-1.35069 5.1089,-4.29465 7,-6.54215 z m 54.3529,-9.89313 c 1.1676,-2.56267 1.1307,-4.07963 -0.1581,-6.48775 -1.5658,-2.9257 -2.0358,-3.03858 -6.7974,-1.63266 -5.7117,1.68646 -8.2206,3.46513 -4.8878,3.46513 1.2003,0 3.5131,1.8 5.1397,4 3.6007,4.87023 4.7327,4.98088 6.7036,0.65528 z m 238.9677,-0.98861 c -0.1132,-1.65 -0.5312,-3.9 -0.9287,-5 -1.7018,-4.70939 -2.0364,-10.51763 -0.888,-15.41503 1.1384,-4.85467 0.9332,-5.52497 -2.7147,-8.86765 -2.7024,-2.47636 -6.0674,-3.89742 -10.6768,-4.50887 -5.3588,-0.71087 -7.1559,-1.61291 -8.8175,-4.42576 -1.1478,-1.94311 -3.9073,-4.57765 -6.1322,-5.85456 -4.7097,-2.70299 -6.7439,-1.65867 -8.9181,4.57824 -1.304,3.7406 -0.9783,4.46989 4.714,10.55545 5.2417,5.60374 6.492,6.33535 8.7563,5.12354 1.7074,-0.91374 2.4055,-2.31636 1.974,-3.96619 -0.7865,-3.00752 0.3122,-3.23085 3.7016,-0.75244 1.888,1.38057 2.286,2.8832 1.7075,6.44776 -0.8351,5.14596 -0.1318,6.8598 3.3404,8.14092 1.2834,0.47349 2.3334,2.21336 2.3334,3.86639 0,1.86588 2.1486,4.89358 5.6666,7.98498 6.6933,5.88163 7.1518,6.02108 6.8822,2.09322 z m -266.9526,-6.8375 c 1.2278,0.75878 3.6646,-1.61156 3.7167,-3.61514 0.011,-0.4323 -1.6052,-1.52667 -3.5921,-2.43194 -3.1017,-1.41322 -3.8542,-1.31526 -5.3226,0.69283 -1.4247,1.94843 -1.3282,2.76087 0.5784,4.86757 1.3172,1.45546 2.4928,1.91591 2.7698,1.08484 0.2647,-0.79417 1.0972,-1.06334 1.8498,-0.59816 z m -4.2629,-2.38217 c 0,-1.03373 1.1882,-1.96903 2.6404,-2.07841 2.9976,-0.2258 4.7582,1.68832 2.7147,2.9513 -0.7453,0.46062 -1.3551,0.12867 -1.3551,-0.7378 0,-1.17389 -0.5096,-1.15234 -2,0.0845 -1.6169,1.34192 -2,1.29984 -2,-0.21967 z m 71.7642,-9.29316 c 3.063,-3.76539 5.5691,-7.92253 5.5691,-9.23809 0,-2.50067 -3.334,-6.58242 -5.3766,-6.58242 -4.2129,0 -14.2489,17.90472 -11.7343,20.93463 2.6687,3.2156 5.9479,1.76263 11.5418,-5.11412 z m 166.9025,6.2264 c 0,-0.34087 -1.35,-1.27396 -3,-2.07355 -2.8809,-1.39605 -2.8972,-1.37144 -0.4119,0.61975 2.7204,2.17945 3.4119,2.47409 3.4119,1.4538 z m -212.0204,-3.71357 c -0.041,-3.34418 -2.1222,-4.62546 -8.9541,-5.51268 -6.2634,-0.81339 -6.8842,-0.67038 -6.0887,1.40272 0.5482,1.42838 1.0891,1.69877 1.419,0.70921 0.8872,-2.6618 2.6379,-1.80061 3.525,1.73408 0.692,2.75693 1.6392,3.33333 5.4779,3.33333 2.835,0 4.6333,-0.64862 4.6209,-1.66666 z m 25.9294,-7.46436 c -0.6068,-0.71635 -7.1531,4.32308 -7.2005,5.54305 -0.023,0.59328 0.5581,0.70787 1.2915,0.25464 0.7333,-0.45323 1.3365,-0.0387 1.3403,0.92131 0,0.95994 1.1219,-0.0547 2.4846,-2.25464 1.3626,-2.2 2.3005,-4.20896 2.0841,-4.46436 z m 72.7337,-4.5786 c 0.013,-1.30698 -1.2829,-2.85974 -2.8801,-3.45059 -2.76,-1.02099 -2.6837,-1.18424 1.5382,-3.29037 2.4432,-1.21884 5.2854,-2.21608 6.316,-2.21608 1.0306,0 1.533,-0.55163 1.1163,-1.22584 -0.4167,-0.67422 0.2452,-2.22867 1.4709,-3.45434 3.1186,-3.11865 0.4045,-4.60658 -8.4506,-4.63274 -8.8006,-0.026 -13.7534,1.82333 -13.7534,5.13537 0,1.58601 -1.2153,2.86015 -3.2042,3.35932 -2.741,0.68795 -3.271,1.73853 -3.6667,7.26779 -0.5428,7.58593 1.0824,7.85897 8.1818,1.37462 4.9064,-4.48124 7.3031,-4.0689 2.9963,0.51547 -1.7238,1.83484 -2.768,4.62753 -2.6947,7.20635 l 0.1197,4.21054 6.4433,-4.21161 c 3.6751,-2.40225 6.4535,-5.23248 6.4672,-6.58789 z m 49.0239,-0.016 c 4.9486,-5.93068 5.3539,-8.71863 1.8897,-12.99678 l -2.4437,-3.01778 -3.6545,4.7913 c -3.3143,4.34532 -8.7915,16.51396 -8.7915,19.53208 0,2.50727 4.7341,2.22286 6.6667,-0.40053 1.1,-1.49319 3.95,-5.05191 6.3333,-7.90827 z m 50.6667,-8.03268 c 3.2607,-4.7896 3.9861,-12.72227 1.4,-15.30839 -1.9167,-1.91667 -8.2422,-2.16871 -7.0761,-0.28193 0.479,0.7751 -0.1,0.96708 -1.4057,0.46602 -1.9296,-0.74044 -2.101,-0.14518 -1.3085,4.54511 0.5684,3.36487 0.3743,5.72932 -0.5156,6.27932 -1.5715,0.97125 -1.9465,6.42792 -0.5385,7.83592 2.2265,2.22659 6.6484,0.57101 9.4444,-3.53605 z m -24.5071,-2.57503 c 1.4637,-5.46167 1.0156,-7.65019 -1.3783,-6.73157 -1.4918,0.57248 -1.9029,0.34036 -1.2546,-0.70851 0.5302,-0.85796 1.8286,-1.55992 2.8854,-1.55992 1.0567,0 1.9213,-0.78 1.9213,-1.73333 0,-2.31706 -2.7342,-4.93334 -5.1556,-4.93334 -1.0755,0 -1.5534,0.40211 -1.062,0.89356 0.4915,0.49147 -0.048,2.33015 -1.1982,4.08596 -1.4096,2.15148 -1.7987,4.52651 -1.193,7.28396 0.5704,2.59735 1.2649,3.49898 1.9015,2.46891 0.7461,-1.20721 1.2018,-1.10403 1.7801,0.40301 0.4276,1.11411 0.061,2.31704 -0.8144,2.67319 -0.9217,0.37497 -0.675,0.69187 0.5861,0.75281 1.1978,0.0579 2.5396,-1.24473 2.9817,-2.89473 z m 67.0164,-6.05203 0.176,-9.04242 -4.5057,0.52601 c -7.0318,0.82092 -10.6741,-0.65897 -12.5059,-5.08127 -1.1762,-2.83965 -2.5733,-4.01696 -4.7668,-4.01696 -1.7066,0 -4.7214,-1.5 -6.6996,-3.33333 -3.5399,-3.28073 -7.2073,-4.40731 -7.2073,-2.21403 0,0.61563 1.5734,1.8362 3.4964,2.7124 3.1546,1.43731 3.4152,2.1013 2.6654,6.79042 -0.7162,4.47885 -0.4491,5.3186 1.9326,6.0745 1.5201,0.48246 5.9309,3.45691 9.802,6.60991 7.164,5.83517 13.6998,9.88103 16.1036,9.96861 0.746,0.0272 1.4108,-3.93441 1.5093,-8.99384 z m -185.1446,-1.00714 c 0.9294,-0.5754 -1.4814,-4.6075 -2.7548,-4.6075 -1.6482,0 -7.6099,5.30707 -7.6099,6.77428 0,0.75311 8.5283,-1.02978 10.3647,-2.16678 z m 97.1129,-11.50788 c 2.3835,-0.86188 4.6234,-2.67528 4.9776,-4.02976 0.4992,-1.90871 -1.7601,-8.69483 -3.8088,-11.4405 -0.5566,-0.7459 -8.0393,2.61456 -10.2237,4.59144 -1.8534,1.6773 -1.9839,2.65752 -0.7418,5.57387 1.7396,4.08473 3.6544,6.872 4.721,6.872 0.4082,0 2.6922,-0.70517 5.0757,-1.56705 z m 25.3228,-2.12003 c 2.4675,-1.64759 4.1343,-5.98793 5.0428,-13.13152 0.9946,-7.82053 -0.9598,-10.69352 -6.3535,-9.33977 -2.08,0.52204 -3.4558,0.16988 -3.9045,-0.99943 -0.3811,-0.99303 -1.9502,-2.13431 -3.4871,-2.5362 -2.2304,-0.58327 -3.4837,0.44597 -6.2117,5.10096 -4.081,6.96368 -3.8801,11.73825 0.5203,12.36205 1.6904,0.23963 3.9404,-0.28384 5,-1.16325 1.0597,-0.87943 1.9266,-1.0294 1.9266,-0.33328 0,0.69612 1.8,1.00149 4,0.6786 2.4011,-0.35241 4,0.007 4,0.89759 0,0.81657 -0.75,1.4854 -1.6666,1.48629 -0.9167,8.9e-4 -3.3589,1.45697 -5.4272,3.23572 l -3.7604,3.23409 3.7604,0.56451 c 2.0683,0.31048 4.0605,0.64521 4.4272,0.74387 0.3666,0.0987 1.3268,-0.26146 2.1337,-0.80023 z m 334.65711,-79.65995 c -1.90164,-5.35661 -3.45752,-10.99486 -3.45752,-12.52946 0,-1.5346 -0.84788,-2.79018 -1.88418,-2.79018 -1.89766,0 -1.85914,0.25302 1.62413,10.66667 0.36793,1.1 0.76349,2.6 0.879,3.33333 0.11547,0.73334 1.22351,3.56407 2.4622,6.29051 1.23871,2.72645 2.32179,6.02645 2.40685,7.33333 0.14196,2.18092 0.20695,2.17316 0.79086,-0.0944 0.3499,-1.35878 -0.9197,-6.85321 -2.82134,-12.20982 z m -18.06009,-183.9863 c 0.0577,0.73333 0.63608,0.0144 1.28525,-1.59764 1.37326,-3.41007 -3.86269,-26.80782 -5.43113,-24.27003 -0.62891,1.01759 -1.27121,0.57284 -1.86229,-1.28949 -1.06454,-3.35402 -5.763,-3.82427 -6.96308,-0.69691 -1.27142,3.31324 4.9922,27.07108 6.94005,26.32361 0.89265,-0.34254 2.03269,0.44487 2.53344,1.74979 0.77581,2.02173 1.094,2.08236 2.15164,0.40996 0.68265,-1.07944 1.28841,-1.36263 1.34612,-0.62929 z m -6.568,-36.23334 c -1.57179,-2.70294 -1.95135,-1.8378 -0.66471,1.51512 0.45726,1.1916 1.11226,1.88568 1.45555,1.54239 0.34329,-0.34329 -0.012,-1.71917 -0.79084,-3.05751 z M 88.3732,114.83975 c 1.2085,-1.20853 2.3131,-1.17698 4.7666,0.13611 2.3893,1.27869 3.8852,1.33907 5.9393,0.23972 1.5101,-0.80819 4.2497,-1.46944 6.088,-1.46944 1.8383,0 3.7379,-0.64011 4.2214,-1.42247 0.5178,-0.83773 4.2497,-1.2488 9.0787,-1 6.5874,0.3394 8.1996,0.0292 8.1996,-1.57753 0,-1.51661 -2.3635,-2.21101 -9.779,-2.87309 -10.8369,-0.96756 -15.7446,-4.00566 -16.4816,-10.202925 -0.2987,-2.51162 -1.4638,-3.69783 -4.4061,-4.48602 -5.8888,-1.5775 -11.7138,0.89676 -17.8929,7.60031 -5.9418,6.446045 -7.0617,11.770395 -3.1071,14.772325 2.9116,2.21021 11.269,2.38708 13.3731,0.28301 z m 77.3863,-28.773905 c 0.3254,-2.28051 -0.236,-2.98638 -2.3752,-2.98638 -3.0065,0 -4.8643,2.93851 -3.378,5.34331 1.4916,2.41353 5.2949,0.85545 5.7532,-2.35693 z"
     style="fill:#363636;stroke-width:1" />
</svg>
