<?xml version="1.0" encoding="UTF-8" standalone="no"?>
<svg
   xmlns:dc="http://purl.org/dc/elements/1.1/"
   xmlns:cc="http://creativecommons.org/ns#"
   xmlns:rdf="http://www.w3.org/1999/02/22-rdf-syntax-ns#"
   xmlns:svg="http://www.w3.org/2000/svg"
   xmlns="http://www.w3.org/2000/svg"
   viewBox="0 0 114.87168 169.60571"
   height="169.60571"
   width="114.87168"
   id="svg2"
   version="1.1">
  <metadata
     id="metadata8">
    <rdf:RDF>
      <cc:Work
         rdf:about="">
        <dc:format>image/svg+xml</dc:format>
        <dc:type
           rdf:resource="http://purl.org/dc/dcmitype/StillImage" />
        <dc:title></dc:title>
      </cc:Work>
    </rdf:RDF>
  </metadata>
  <defs
     id="defs6" />
  <path
     id="path12"
     d="m 76.500871,166.1346 c 3.44671,-5.07901 5.21342,-14.4239 3.79323,-20.06398 -0.83882,-3.33128 -6.74746,-17.20196 -8.67319,-20.36053 -0.0917,-0.15044 -0.90618,0.0102 -1.8099,0.35699 -2.39117,0.91758 -2.01977,4.60429 1.10586,10.97733 l 2.74899,5.60508 -3.49899,2.99679 c -9.68212,8.29246 -16.98077,15.49418 -17.06397,16.83735 -0.0637,1.02913 -0.25125,1.10761 -0.5973,0.25 -0.27741,-0.6875 -1.14188,-1.25 -1.92105,-1.25 -3.16918,0 -1.03159,-3.82851 5.58333,-10 7.77112,-7.25017 8.30347,-8.90371 4.54014,-14.10212 -3.48712,-4.81687 -5.95306,-9.58854 -8.08663,-15.64788 -1.75911,-4.99585 -1.76618,-5.47995 -0.14611,-10 0.93637,-2.6125 1.70027,-5.20701 1.69755,-5.76557 -0.003,-0.55856 -3.58096,-4.66433 -7.95165,-9.123948 -6.13968,-6.26458 -8.90556,-10.06987 -12.16346,-16.73443 -2.85471,-5.839756 -4.77043,-8.626065 -5.93086,-8.626065 -0.94275,0 -2.27429,-0.675 -2.95898,-1.5 -1.89619,-2.284769 -2.84161,-1.812498 -3.18664,1.591838 l -0.31336,3.091839 -2.7105,-2.341839 c -4.4159,-3.815288 -7.85283,-9.066935 -7.22611,-11.041544 0.67771,-2.135279 -1.7487799,-2.486761 -3.4034599,-0.492997 -2.1081197,2.540136 -4.1390897,12.617315 -3.0958897,15.361128 0.66155,1.74 0.63359,2.99099 -0.0862,3.85832 -0.90369,1.08888 -1.75578,1.18546 -4.85024997,0.54977 -0.20485,-0.0421 0.18775,-0.75151 0.87243997,-1.57651 1.00753,-1.214 0.97316,-1.5 -0.18024997,-1.5 -2.06580003,0 -0.72226,-8.931058 2.46393997,-16.378775 2.70013,-6.311551 3.94723,-7.581968 7.4663096,-7.605917 1.87996,-0.01279 2.25,-0.563146 2.25,-3.346333 0,-4.668131 3.42243,-6.536137 7.81417,-4.26508 4.39158,2.270975 5.33237,2.054449 9.46583,-2.178593 2.51228,-2.572811 4.48733,-6.131037 6.20294,-11.175152 1.38439,-4.070253 2.51706,-7.722409 2.51706,-8.115901 0,-0.779123 -5.34078,-1.847516 -11.19256,-2.239009 -4.34727,-0.290838 -4.60093,-0.488409 -5.74392,-4.473777 -1.04355,-3.638628 0.50825,-5.374402 8.72454,-9.7588731 2.90843,-1.552032 5.08883,-3.341038 4.84534,-3.975568 -0.50371,-1.312644 -0.0314,-1.439928 6.8666,-1.850652 2.75,-0.16374 6.0125,-0.8397419 7.25,-1.50222594 2.58537,-1.38405001 2.90734,-0.38548 0.78181,2.42472194 -1.38283,1.828261 -2.17022,4.412872 -0.98254,3.225195 0.3021,-0.302097 2.32083,1.041094 4.48607,2.984869 4.03812,3.6250991 9.73043,13.4758081 8.10097,14.0189631 -0.50025,0.166751 -0.016,2.64519 1.0762,5.507643 2.45797,6.442099 3.21349,11.704459 1.68043,11.704459 -0.65826,0 -0.92995,1.026047 -0.65397,2.469738 0.25966,1.358355 0.0871,2.231798 -0.38342,1.940983 -0.47055,-0.290815 -0.85555,0.622803 -0.85555,2.030262 0,1.693849 -0.54852,2.559017 -1.62244,2.559017 -1.28199,0 -1.37714,0.295578 -0.45343,1.408577 0.75707,0.912219 0.9405,3.131232 0.52052,6.297169 -0.54735,4.126131 -0.18917,5.895021 2.29651,11.341422 2.78386,6.099766 5.0135,8.698657 14.8723,17.335307 2.88363,2.52616 4.76526,5.39116 6.29356,9.58266 2.49889,6.853448 4.30328,9.034878 7.47328,9.034878 2.84323,0 4.70259,1.50572 7.970959,6.45492 1.43647,2.1752 3.63258,4.52176 4.88026,5.21456 1.97605,1.09726 2.02711,1.26422 0.39605,1.29508 -1.58711,0.03 -1.67395,0.27461 -0.56986,1.60496 0.71642,0.86324 2.07369,1.36788 3.01614,1.12142 1.15522,-0.3021 1.6347,0.0825 1.47155,1.18048 -0.31227,2.10151 1.57362,5.12858 3.19516,5.12858 1.73497,0 1.57833,1.99016 -0.32191,4.0899 -1.44818,1.60023 -1.4166,1.91214 0.375,3.70374 2.23435,2.23435 2.58186,6.97372 0.65279,8.90279 -1.3417,1.34169 -7.29846,1.71843 -11.08915,0.70134 -3.497424,-0.93841 -4.171234,-10.39777 -0.74065,-10.39777 0.76085,0 1.38337,-0.47656 1.38337,-1.05902 0,-0.58246 -0.39919,-0.8123 -0.8871,-0.51076 -0.4879,0.30154 -0.84584,-0.009 -0.79542,-0.69098 0.14326,-1.9368 -7.807039,-18.079 -9.659079,-19.61168 -1.46608,-1.21329 -1.65841,-1.09067 -1.65841,1.05733 0,1.33638 -1.56084,5.53205 -3.46854,9.32371 -3.78378,7.52049 -3.78591,8.44237 -0.0394,17.01197 2.02008,4.62062 2.08284,5.3376 0.78775,9 -0.77396,2.18869 -2.43263,7.80443 -3.68594,12.47943 l -2.27873,8.5 -3.66886,0.31104 -3.66887,0.31104 z m 25.238449,-28.57755 c 0,-1.05962 -0.35357,-1.70806 -0.78572,-1.44098 -0.43214,0.26707 -0.78571,1.13404 -0.78571,1.92658 0,0.79254 0.35357,1.44098 0.78571,1.44098 0.43215,0 0.78572,-0.86696 0.78572,-1.92658 z M 20.549441,68.931679 c 0.3415,-0.889925 0.17385,-1.291322 -0.39301,-0.940983 -0.5437,0.336025 -0.98855,1.034397 -0.98855,1.551938 0,1.438432 0.71677,1.121462 1.38156,-0.610955 z m 0.88126,-15.64678 c -3.4339,-3.433904 -3.66463,-3.440442 -4.68016,-0.132613 -0.70656,2.30141 0.43844,2.983414 5.39811,3.21533 2.47671,0.115811 2.47554,0.110771 -0.71795,-3.082717 z"
     style="fill:#0b0b0b" />
</svg>
