<?xml version="1.0" encoding="UTF-8" standalone="no"?>
<!-- Created with Inkscape (http://www.inkscape.org/) -->

<svg
   xmlns:dc="http://purl.org/dc/elements/1.1/"
   xmlns:cc="http://creativecommons.org/ns#"
   xmlns:rdf="http://www.w3.org/1999/02/22-rdf-syntax-ns#"
   xmlns:svg="http://www.w3.org/2000/svg"
   xmlns="http://www.w3.org/2000/svg"
   xmlns:sodipodi="http://sodipodi.sourceforge.net/DTD/sodipodi-0.dtd"
   xmlns:inkscape="http://www.inkscape.org/namespaces/inkscape"
   version="1.1"
   id="svg2"
   width="3141.4243"
   height="1872.9613"
   viewBox="0 0 3141.4243 1872.9613"
   sodipodi:docname="7.svg"
   inkscape:version="0.92.0 r15299">
  <metadata
     id="metadata8">
    <rdf:RDF>
      <cc:Work
         rdf:about="">
        <dc:format>image/svg+xml</dc:format>
        <dc:type
           rdf:resource="http://purl.org/dc/dcmitype/StillImage" />
        <dc:title></dc:title>
      </cc:Work>
    </rdf:RDF>
  </metadata>
  <defs
     id="defs6" />
  <sodipodi:namedview
     pagecolor="#ffffff"
     bordercolor="#666666"
     borderopacity="1"
     objecttolerance="10"
     gridtolerance="10"
     guidetolerance="10"
     inkscape:pageopacity="0"
     inkscape:pageshadow="2"
     inkscape:window-width="640"
     inkscape:window-height="771"
     id="namedview4"
     showgrid="false"
     fit-margin-top="0"
     fit-margin-left="0"
     fit-margin-right="0"
     fit-margin-bottom="0"
     inkscape:zoom="0.12291667"
     inkscape:cx="1440.7329"
     inkscape:cy="-46.514643"
     inkscape:window-x="0"
     inkscape:window-y="0"
     inkscape:window-maximized="0"
     inkscape:current-layer="svg2" />
  <path
     style="fill:#000000;stroke-width:1"
     d="m 1518.8347,1841.9596 c -27.8667,-16.9861 -51.2688,-31.2361 -52.0046,-31.6666 -1.0415,-0.6093 5.1645,-55.2487 28,-246.5207 16.1358,-135.1558 29.3379,-246.6155 29.3379,-247.6883 0,-1.7038 -0.9444,-1.9505 -7.4666,-1.9505 -4.1067,0 -7.4667,0.2625 -7.4667,0.5834 0,1.7136 -77.01,460.7821 -77.3554,461.1275 -0.9404,0.9404 -86.9113,-56.0963 -86.9113,-57.6606 0,-1.1114 100.8857,-429.6188 101.9823,-433.1655 0.5381,-1.7398 -0.1179,-1.8863 -7.1663,-1.6 l -7.7586,0.3152 -55.1824,208.3649 c -30.3504,114.6006 -55.4338,208.6161 -55.741,208.9233 -0.4445,0.4445 -83.0416,-56.3924 -86.3505,-59.4197 -0.4856,-0.4444 31.1429,-87.3866 70.2855,-193.2049 39.1428,-105.8183 71.3961,-193.2369 71.6742,-194.2636 0.4582,-1.6914 -0.5467,-1.8667 -10.7047,-1.8667 -9.6679,0 -11.3082,0.2554 -11.9224,1.856 -21.0463,54.8456 -142.9586,368.0069 -143.4943,368.5997 -0.5269,0.5832 -84.2334,-56.0978 -92.5242,-62.6517 -0.1296,-0.1024 39.8971,-66.1603 88.9482,-146.7951 49.0511,-80.6349 89.3953,-147.3808 89.6539,-148.3244 0.3364,-1.2275 -1.9973,-3.162 -8.2036,-6.8005 l -8.6736,-5.085 -2.704,2.5338 c -1.4871,1.3936 -12.1423,12.7391 -23.6778,25.2122 -24.2763,26.2488 -21.8333,26.0353 -23.0704,2.016 -0.8898,-17.2745 -1.0199,-17.7709 -4.6423,-17.7236 -2.503,0.032 -5.6669,3.8656 -25.2614,30.6035 l -22.4,30.5662 -0.6788,-6.3369 c -0.3734,-3.4852 -1.0219,-10.6022 -1.4412,-15.8153 l -0.7623,-9.4787 -15.2156,15.1885 c -13.7507,13.7262 -15.2724,14.9468 -15.8055,12.6785 -0.3244,-1.3803 -1.4165,-7.7898 -2.4267,-14.2432 -1.0104,-6.4533 -2.1298,-12.0697 -2.4876,-12.4808 -0.3579,-0.4111 -8.0338,6.3089 -17.0577,14.9333 l -16.4072,15.6809 1.2783,14.9333 1.2784,14.9333 12.7296,23.2561 c 7.0013,12.791 12.7281,23.591 12.7263,24 0,0.4092 -7.8974,13.9092 -17.5459,29.9999 -9.6484,16.0908 -17.2987,29.6508 -17.0004,30.1334 1.1854,1.9179 9.1124,0.676 20.733,-3.2482 11.7105,-3.9546 22.35,-6.3177 22.35,-4.964 0,0.3526 -0.9205,2.422 -2.0454,4.5986 -3.1476,6.0906 -10.386,12.3389 -20.3546,17.5707 l -9.0667,4.7585 -30.5375,3.4351 -30.5376,3.4351 -4.6624,-2.3689 c -4.0786,-2.0722 -21.4464,-14.9978 -20.8759,-15.5365 0.1174,-0.1108 6.9334,-0.9741 15.1467,-1.9183 8.2134,-0.9442 17.2422,-2.4153 20.0639,-3.269 13.3507,-4.0392 21.8411,-11.5528 28.3433,-25.0825 4.6502,-9.676 5.5813,-19.6997 2.8992,-31.2095 -4.3124,-18.5057 -15.1002,-30.0922 -33.173,-35.6296 -8.9898,-2.7544 -40.7291,-2.7465 -53.8667,0.014 -27.50235,5.7774 -54.38425,14.984 -82.13327,28.1289 -11.0669,5.2425 -14.4549,7.4393 -19.9312,12.9229 -8.7738,8.7858 -12.5338,15.6929 -18.9585,34.8268 -7.8741,23.4505 -8.2663,22.8934 -9.9377,-14.1159 l -1.3606,-30.1295 4.2229,-11.2063 c 7.8612,-20.8611 20.2873,-37.7723 33.8665,-46.0903 l 5.5015,-3.37 1.4319,8.1962 1.4318,8.1962 9.6,0.3275 c 12.56202,0.4284 37.66232,-2.4475 50.52182,-5.7886 5.61876,-1.4599 10.37846,-2.8169 10.57716,-3.0156 0.445,-0.445 -12.39556,-18.4923 -13.75496,-19.3325 -0.5386,-0.3329 -7.3313,-1.3376 -15.095,-2.2327 -18.7452,-2.1612 -38.65652,-2.1615 -48.60742,-6e-4 l -7.825,1.6993 -5.9547,-6.4317 c -11.85,-12.7995 -22.0629,-14.5919 -34.8568,-6.1176 -2.8245,1.8708 -7.2587,6.077 -9.8538,9.347 -6.6578,8.3892 -14.9266,25.5774 -17.6271,36.6409 -1.3179,5.3994 -2.7731,9.1996 -3.438,8.9784 -0.772,-0.257 -1.2407,-8.6354 -1.4187,-25.3621 l -0.2659,-24.9784 25.0036,-20.6527 c 18.867,-15.584 29.0074,-23.0926 41.3168,-30.5936 8.9722,-5.4674 16.4708,-9.7831 16.6635,-9.5904 0.1927,0.1928 -0.6653,6.0398 -1.9067,12.9935 -1.2414,6.9538 -2.352,13.355 -2.468,14.2249 -0.1761,1.3213 5.5848,2.0486 34.98922,4.4179 19.36,1.5599 35.3684,2.6798 35.5742,2.4886 0.2057,-0.1911 -11.2174,-13.044 -25.3847,-28.5619 -23.10702,-25.3097 -26.38492,-28.4914 -31.84082,-30.9057 -12.8926,-5.7052 -23.9599,-6.1559 -35.4153,-1.4425 -3.2267,1.3275 -15.4072,9.2612 -27.0678,17.6301 -14.0432,10.0791 -21.5589,14.8586 -22.2609,14.1565 -1.668,-1.668 72.1251,-87.4545 77.0031,-89.5182 5.8225,-2.4633 21.70132,-2.9721 29.59742,-0.9483 7.5612,1.9379 50.42816,17.9963 50.44826,18.8984 0.01,0.3282 -12.94026,4.6482 -28.77226,9.6 -15.8321,4.9519 -28.7766,9.2434 -28.7656,9.5368 0.011,0.2933 30.3113,16.0919 67.33415,35.108 l 67.3143,34.5748 25.5389,-12.7081 c 14.0464,-6.9895 25.7349,-13.015 25.9746,-13.39 0.2397,-0.375 -8.4343,-3.975 -19.2753,-8 -10.8412,-4.025 -19.7024,-7.5581 -19.6917,-7.8514 0.011,-0.2933 11.3529,-6.7733 25.2047,-14.4 13.852,-7.6267 27.6175,-15.2534 30.5903,-16.9484 l 5.405,-3.0817 -15.395,-7.7121 -15.395,-7.7122 5.3064,-2.6384 c 2.9185,-1.4511 15.5051,-7.3378 27.9703,-13.0816 22.2723,-10.2629 22.681,-10.51 23.6628,-14.3011 0.5495,-2.1218 2.2726,-9.2578 3.8292,-15.8578 l 2.8302,-12 h 14.2313 14.2312 l 1.7361,-6.1334 c 0.9548,-3.3733 1.9732,-6.9482 2.2632,-7.9443 0.6067,-2.084 1.0226,-1.9555 -25.4571,-7.8682 -9.8317,-2.1953 -17.7359,-4.1313 -17.565,-4.3021 0.1709,-0.171 18.535,-7.0148 40.8092,-15.2084 22.274,-8.1936 41.6118,-15.3208 42.9726,-15.8383 2.3242,-0.8836 1.4878,-1.9622 -13.7714,-17.7607 l -16.2457,-16.8201 2.5714,-2.4906 c 1.4143,-1.3698 43.3715,-38.357 93.2382,-82.19359 49.8666,-43.8366 90.8246,-80.11781 91.0178,-80.62496 0.193,-0.50714 -12.527,-20.60335 -28.2667,-44.65828 l -28.6178,-43.7362 h -29.3333 c -16.1334,10e-4 -155.3335,1.1903 -309.3335,2.6428 -153.99997,1.4524 -294.39997,2.6132 -311.99997,2.5793 l -32,-0.061 -64.7086,-78.5917 -64.7086,-78.5918 347.1086,-0.2683 c 266.41357,-0.2066 347.10857,-0.5624 347.10857,-1.5313 0,-0.6943 -2.5092,-10.5329 -5.5761,-21.8635 l -5.576,-20.6011 -360.00807,-0.2682 -360.0082,-0.2682 -65.1737,-78.9333 -65.1737,-78.9334 372.5498,-0.5333 372.54987,-0.5333 -17.792,-21.5848 -17.7919,-21.5847 -373.00287,-0.015 -373.003,-0.015 -71.9535,-87.2 -71.9536,-87.19999 391.8036,-0.5333 391.80352,-0.5334 -17.7804,-21.5796 -17.7803,-21.5795 -392.25122,-0.02 -392.2512,-0.02 L 78.050132,88.775509 C 35.948232,41.97531 0.84253721,2.8553 0.03733721,1.8422 -1.3491628,0.0975 32.703137,0 643.50403,0 h 644.93067 v 8.4885 8.4884 l -7.7855,12.04491 c -66.2284,102.46207 -84.3156,220.54736 -52.4038,342.12626 20.6034,78.4958 61.6869,154.9161 112.5653,209.3853 l 10.7107,11.4666 6.59,-0.023 6.59,-0.023 80.4567,-174.3402 80.4568,-174.3401 4.8765,-0.7955 c 7.901,-1.2889 74.9581,-0.8889 92.3433,0.5508 19.923,1.6499 42.2653,4.015 57.6,6.0976 15.0293,2.0411 75.6316,11.3654 76.0526,11.7015 0.1756,0.1401 -4.1444,9.9045 -9.6,21.6986 l -9.9193,21.4437 -36.5333,0.015 c -20.0933,0.01 -36.5333,0.2803 -36.5333,0.6049 0,0.3246 2.725,4.2846 6.0554,8.8 25.5824,34.6841 42.3561,45.898 57.6091,38.5141 2.5326,-1.226 6.0668,-3.986 7.8539,-6.1333 3.2459,-3.9005 11.3351,-19.0786 13.5176,-25.3638 l 1.1551,-3.3263 19.0378,-0.6657 c 34.1979,-1.1958 93.1711,-2.054 93.1711,-1.3558 0,0.6547 -72.1165,116.6188 -73.56,118.2854 -0.3866,0.4463 -4.2524,-9.301 -8.5906,-21.6606 -7.1242,-20.2966 -8.0989,-22.4234 -10.0686,-21.9701 -1.1995,0.2761 -22.9633,4.9833 -48.3642,10.4606 -37.602,8.1083 -46.0981,10.256 -45.7244,11.5587 0.2525,0.88 22.5293,41.68 49.504,90.6667 l 49.0449,89.0667 6.9517,0.3124 6.9517,0.3125 11.521,-12.5791 c 55.6726,-60.7862 97.5183,-142.6735 116.0227,-227.0436 6.1704,-28.1338 8.849,-48.5549 10.247,-78.1195 4.1308,-87.35759 -18.6989,-170.70489 -67.2825,-245.63836 L 1851.6347,17.4221 V 8.7111 10e-5 h 644.8947 644.8949 l -2.5258,3.0017 c -1.3891,1.6509 -36.5204,40.77091 -78.0696,86.933279 l -75.5437,83.931701 h -392.2793 -392.2794 l -17.796,21.6 -17.7963,21.6 391.5168,0.2681 c 215.3343,0.1475 391.5169,0.539 391.5169,0.8701 0,0.331 -32.2565,39.69039 -71.6812,87.46519 l -71.6813,86.8633 H 2431.8327 2058.86 l -17.7962,21.6 -17.7962,21.6 372.4052,0.2681 c 204.8228,0.1475 372.2454,0.6542 372.0502,1.126 -0.1953,0.4718 -29.557,36.2312 -65.2483,79.4652 l -64.8931,78.6073 h -359.9069 c -197.9486,0 -359.9067,0.2182 -359.9067,0.4849 0,0.544 -10.1594,37.8367 -11.2055,41.1326 -0.6673,2.1024 1.01,2.1139 346.8991,2.3809 l 347.5697,0.2683 -64.9318,78.6667 -64.932,78.6666 -32.1664,-0.014 c -17.6916,-0.01 -157.6865,-1.2014 -311.0997,-2.6523 -153.4134,-1.451 -292.4352,-2.6446 -308.9376,-2.6524 l -30.0042,-0.014 -28.0326,42.9333 c -15.4178,23.61336 -28.4333,43.45934 -28.9232,44.10222 -0.7008,0.91982 101.2698,91.68772 184.1642,163.93141 l 3.2,2.7889 -16.4824,16.5507 c -9.0654,9.1029 -16.2509,16.7823 -15.9679,17.0654 0.3726,0.3725 66.2254,24.7192 84.0696,31.0817 0.8173,0.2914 1.27,0.7459 1.006,1.0099 -0.2641,0.2641 -9.7058,2.5859 -20.9817,5.1596 -11.276,2.5737 -20.7646,4.9424 -21.0859,5.2637 -0.3213,0.3212 0.3314,3.8681 1.4504,7.882 l 2.0347,7.2978 14.3098,0.5333 14.3097,0.5334 3.7356,15.1623 c 2.0545,8.3392 4.2155,15.5955 4.8021,16.1249 0.5867,0.5295 12.9467,6.4073 27.4667,13.0617 14.52,6.6544 26.4,12.4804 26.4,12.9466 0,0.4664 -6.48,4.0774 -14.4,8.0245 -7.92,3.9472 -14.3851,7.4249 -14.3668,7.7283 0.018,0.3035 13.4582,7.958 29.8666,17.0101 16.4085,9.0521 29.8335,16.7642 29.8335,17.1379 0,0.3737 -8.6322,3.946 -19.1826,7.9383 -10.5504,3.9923 -18.9898,7.5602 -18.7542,7.9287 0.2356,0.3686 11.9037,6.3801 25.9289,13.359 l 25.5005,12.6889 66.8538,-34.4928 c 36.7695,-18.971 66.8535,-34.7895 66.8535,-35.1522 0,-0.3628 -12.9275,-4.711 -28.7279,-9.6628 -15.8004,-4.9519 -28.4004,-9.297 -28,-9.6557 1.4868,-1.3321 43.6437,-16.9599 50.2876,-18.6419 7.5137,-1.9023 21.899,-1.6371 28.9732,0.5341 3.2564,0.9993 9.7851,8.1116 41.3774,45.0759 23.4655,27.4556 37.135,44.2656 36.5064,44.8942 -0.6285,0.6285 -9.4146,-4.9887 -23.4649,-15.0017 -13.857,-9.8754 -24.4183,-16.6364 -27.5726,-17.6512 -11.9093,-3.8313 -21.6446,-3.2042 -33.609,2.1652 -5.8956,2.6458 -8.6802,5.3338 -32.3427,31.2196 -14.2405,15.5786 -25.8172,28.4036 -25.7262,28.5 0.091,0.096 16.1255,-1.0979 35.6321,-2.654 29.7142,-2.3702 35.4666,-3.091 35.4666,-4.4439 0,-0.8882 -0.96,-6.653 -2.1333,-12.8107 -1.1733,-6.1577 -2.1333,-12.0359 -2.1333,-13.0627 0,-1.4209 4.0569,0.6177 16.9778,8.5312 12.9445,7.928 22.7001,15.1485 41.0666,30.3945 l 24.0889,19.9965 v 25.6925 c 0,19.1947 -0.3167,25.5869 -1.2524,25.275 -0.6888,-0.2297 -1.8407,-3.2697 -2.5597,-6.7555 -3.7626,-18.2428 -14.9892,-38.1873 -26.761,-47.5424 -4.9031,-3.8965 -14.1216,-6.6847 -18.7779,-5.6798 -6.0412,1.3039 -11.2088,4.5822 -17.6281,11.1831 l -6.2467,6.4237 -7.3871,-1.7733 c -4.9288,-1.1833 -11.8242,-1.759 -20.7204,-1.7298 -14.1006,0.046 -42.6833,2.8795 -43.6778,4.33 -0.3238,0.4722 -3.4013,4.8143 -6.8387,9.6489 -3.4375,4.8348 -6.0775,8.9382 -5.8667,9.1188 0.8546,0.7322 11.4226,3.7515 16.9166,4.8331 19.8359,3.9054 52.5872,5.6654 53.6548,2.8835 0.3024,-0.7881 0.8898,-4.1545 1.3054,-7.4808 0.4157,-3.3264 1.1884,-6.3154 1.7171,-6.6422 2.746,-1.6971 19.692,13.0242 26.5016,23.0224 5.444,7.9931 9.834,16.9286 13.6254,27.7333 l 3.1814,9.0667 -1.323,29.6411 c -0.7277,16.3028 -1.6637,29.982 -2.0801,30.3983 -1.4088,1.4089 -3.6086,-3.1164 -7.5839,-15.6009 -5.744,-18.0397 -9.457,-25.0762 -17.9816,-34.0765 -6.5009,-6.8637 -8.8581,-8.5023 -19.7334,-13.7184 -28.5408,-13.6888 -55.906,-23.0473 -84.0734,-28.7519 -12.706,-2.5732 -38.4839,-3.1442 -48.277,-1.0692 -24.656,5.2241 -37.2312,20.1757 -40.0159,47.5775 -0.605,5.953 -0.3083,7.9851 2.0979,14.3722 3.5544,9.4353 7.9392,16.2695 14.0562,21.9079 8.1579,7.5198 17.3897,10.4706 40.075,12.8096 l 12.4797,1.2867 -7.6797,6.3069 c -4.2239,3.4687 -10.1531,7.5274 -13.176,9.0194 l -5.4963,2.7127 -30.2371,-3.4536 c -29.742,-3.3971 -30.3681,-3.5191 -38.2371,-7.4392 -11.4758,-5.7171 -16.5618,-9.7841 -20.2263,-16.174 -1.7712,-3.0885 -3.2249,-5.981 -3.2303,-6.4279 -0.018,-1.4416 8.732,0.43 22.1442,4.7365 12.5263,4.0221 21.3379,5.0691 20.8416,2.4761 -0.1123,-0.5867 -8.1007,-14.1728 -17.7519,-30.1914 l -17.5476,-29.1245 13.0564,-23.6755 13.0564,-23.6753 1.2408,-14.9333 1.2407,-14.9333 -16.2787,-15.6804 c -8.9532,-8.6242 -16.5705,-15.7042 -16.9272,-15.7333 -0.3568,-0.029 -1.7448,6.667 -3.0848,14.8803 -1.3399,8.2134 -2.6384,14.9334 -2.8854,14.9334 -0.2472,0 -6.9658,-6.7333 -14.9304,-14.9627 -7.9645,-8.2294 -14.7207,-14.723 -15.0136,-14.4301 -0.2929,0.2929 -1.0737,7.3862 -1.735,15.7627 l -1.2024,15.2301 -11.4551,-15.4667 c -6.3004,-8.5067 -16.5163,-22.3067 -22.7021,-30.6667 -9.8612,-13.3273 -11.6189,-15.2 -14.2665,-15.2 h -3.0195 l -0.764,13.0667 c -0.4203,7.1867 -1.078,15.8971 -1.4617,19.3564 l -0.6976,6.2898 -23.3611,-25.2232 c -12.8486,-13.8726 -23.7515,-25.223 -24.2289,-25.223 -0.6479,0 -15.5492,8.5397 -17.8212,10.2131 -0.1894,0.1395 40.0106,66.6116 89.3333,147.7158 49.3229,81.104 89.6779,147.8253 89.6779,148.2695 0,0.7858 -88.7605,62.6403 -91.0957,63.4818 -0.6929,0.2496 -30.5687,-75.3519 -73.171,-185.1606 l -72,-185.5825 h -11.352 -11.3521 l 3.057,8.2666 c 99.9352,270.2482 140.5943,380.4705 140.4101,380.6363 -4.3839,3.9454 -86.6256,60.0295 -87.1528,59.4333 -0.4231,-0.4782 -25.1526,-93.0296 -54.9545,-205.6696 -29.8019,-112.64 -54.6137,-206.36 -55.1373,-208.2666 l -0.952,-3.4667 h -7.5321 c -7.2755,0 -7.512,0.082 -6.9399,2.4 13.0935,53.0486 101.8655,433.3834 101.2815,433.9297 -1.7201,1.6092 -86.7092,57.4328 -86.7092,56.9534 0,-1.4074 -76.8948,-459.889 -77.3282,-461.0655 -0.3648,-0.9905 -2.5544,-1.2929 -7.7235,-1.0667 l -7.2143,0.3158 0.3533,3.7333 c 0.1942,2.0533 13.4464,113.1733 29.4491,246.9333 21.3981,178.8585 28.7829,243.53 27.9131,244.447 -0.6506,0.6858 -21.5828,13.5923 -46.5162,28.6809 -24.9333,15.0888 -47.8626,29.0476 -50.954,31.0198 -3.0914,1.9721 -5.7314,3.5354 -5.8667,3.4741 -0.1352,-0.062 -23.0459,-14.0095 -50.9126,-30.9956 z"
     id="path12"
     inkscape:connector-curvature="0" />
</svg>
