<?xml version="1.0" encoding="utf-8"?><svg xmlns="http://www.w3.org/2000/svg" xmlns:xlink="http://www.w3.org/1999/xlink"><symbol viewBox="0 0 980.641 1091.525" id="1" xmlns="http://www.w3.org/2000/svg"><path d="M654.49 1048.189c.159-39.975-.714-62.795-2.655-69.443-1.153-3.95-13.835-2.88-13.835 1.167 0 2.322-6.618 15.166-7.814 15.166-.784 0-1.52 1.535-5.59 11.667-.663 1.65-1.806 3-2.54 3-2.613 0-7.08-11.379-8.614-21.94-1.555-10.711-1.563-10.726-5.448-10.437-2.14.16-4.355-.44-4.922-1.333-1.668-2.626-1.273 1.51.928 9.71 1.083 4.033 1.975 10.633 1.983 14.667.014 6.985 2.465 21.79 8.117 49.037 2.695 12.988 3.412 28.95 1.359 30.219-.665.41-1.632-2.404-2.15-6.255-.519-3.85-2.975-15.251-5.46-25.334-2.483-10.083-4.516-20.058-4.516-22.166 0-2.108-.862-6.278-1.917-9.267-1.054-2.989-1.893-7.714-1.864-10.5.029-2.788-1.261-10.63-2.868-17.43l-2.92-12.364-2.486 3.16c-1.795 2.283-2.596 5.865-2.882 12.882l-.396 9.721-4.57.497c-2.514.273-4.843.768-5.176 1.1-1.458 1.46-5.808-2.511-8.41-7.678-4.056-8.053-11.748-17.113-14.316-16.862-1.207.117-2.795.089-3.528-.063-3.291-.684-13.456.295-14.6 1.406-.697.677-2.626 1.23-4.286 1.23-1.661 0-3.62 1.123-4.355 2.494-1.167 2.182-1.984 2.32-6.535 1.106-4.47-1.194-6.007-.968-10.957 1.613-3.167 1.65-8.91 5.694-12.763 8.985-6.02 5.144-7.391 5.778-9.754 4.513-1.513-.809-2.75-2.365-2.75-3.457 0-1.092-1.558-2.578-3.462-3.303-1.905-.724-3.775-2.509-4.156-3.967-1.073-4.103-3.917-3.185-10.487 3.385-3.32 3.32-6.604 5.684-7.299 5.255-.694-.43-1.263-.145-1.263.631 0 .777-.563 1.412-1.251 1.412-.689 0-1.639-2.55-2.111-5.666-1.028-6.781-5.796-16.986-8.777-18.785-2.485-1.5-13.892 1.413-16.139 4.12-.772.93-2.751 4.21-4.398 7.29-3.63 6.785-5.566 7.663-7.233 3.28-1.723-4.532-3.727-5.484-4.751-2.258-1.05 3.306-3.131 3.478-4.284.353-1.29-3.497-3.133-4.241-6.596-2.664-2.241 1.022-4.57.987-8.277-.124-7.687-2.303-13.166-1.884-17.528 1.34-2.147 1.588-5.273 3.038-6.946 3.223-1.673.185-3.465.386-3.982.447-.516.06-1.347 2.36-1.846 5.11-1.429 7.873-5.192 14.115-11.745 19.485-5.968 4.89-6.111 4.93-10.163 2.835-2.26-1.169-4.439-2.982-4.84-4.03-.403-1.047-2.022-1.8-3.599-1.673-4.953.4-9.474-3.897-14.25-13.542-2.575-5.2-5.502-9.353-6.617-9.39-1.1-.036-4.64-1.855-7.867-4.042-3.227-2.187-6.857-3.976-8.067-3.976s-3.008-.75-3.996-1.667c-1.463-1.357-1.65-1.251-1.011.572.432 1.232 1.214 4.532 1.739 7.334.525 2.802 1.77 7.05 2.767 9.439 2.365 5.666 1.174 9.977-3.522 12.752-5.122 3.025-6.42 2.84-13.376-1.904-6.047-4.124-10.588-4.562-19.362-1.868-1.818.558-4.504-.483-8.25-3.196-4.598-3.331-5.929-5.358-7.728-11.77-1.696-6.045-3.056-8.253-6.191-10.052-4.129-2.37-11.18-3.2-9.924-1.17.386.626-.112 2.252-1.109 3.614-1.577 2.157-2.283 2.262-5.463.813-2.008-.915-3.724-1.491-3.812-1.28-2.6 6.188-8.123 8.308-11.087 4.255-2.1-2.872-2.208-1.431-.362 4.804 2.828 9.548 8.034 49.885 7.176 55.603-1.058 7.054-2.83 7.38-3.918.721-.449-2.75-2.286-12.8-4.081-22.333-2.98-15.819-5.34-26.21-13.933-61.334-1.615-6.6-3.789-17.1-4.83-23.333-3.664-21.908-7.367-32.557-14.652-42.126-3.77-4.952-4.204-15.3-1.168-27.874 3.123-12.931 2.644-19.355-1.949-26.133-4.89-7.217-5.007-11.31-.709-24.798 2.584-8.107 5.1-12.608 11.41-20.402 4.45-5.5 10.45-14.617 13.329-20.26 5.514-10.805 8.525-13.251 20.204-16.407 3.151-.852 8.088-4.381 13.664-9.77 6.974-6.74 9.135-9.829 10.74-15.348 2.638-9.074 11.694-22.788 17.779-26.923 3.357-2.28 6.695-3.301 10.869-3.321 5.412-.026 6.74-.717 13.078-6.814l7.056-6.785-6.627-16.186c-11.893-29.048-12.657-30.762-17.319-38.853-7.257-12.596-15.395-22.758-32.045-40.02-20.695-21.453-46.492-49.502-58.987-64.134-13.914-16.294-22.735-31.285-26.457-44.967-.966-3.55-2.714-6.788-3.883-7.196-1.17-.407-3.626-2.116-5.46-3.798-1.833-1.682-12.333-7.555-23.333-13.051-19.61-9.8-49.113-28.267-58.935-36.891-9.8-8.605-27.345-30.12-31.983-39.22-6.146-12.06-8.467-25.357-8.995-51.531L13 318.129l-6.46-14.525L.083 289.08l-.042-16.125L0 256.83l6.516-13.208c5.515-11.179 8.256-14.92 17.842-24.348 19.857-19.53 32.569-22.737 60.975-15.385 11.51 2.979 41.4 6.358 43.276 4.893.336-.262-.447-2.102-1.738-4.089-1.29-1.987-5.713-10.513-9.826-18.946-8.066-16.538-24.672-41.333-27.682-41.333-2.582 0-3.737 4.509-2.71 10.586 1.444 8.546-3.025 8.77-8.653.434-1.833-2.715-4.956-6.804-6.939-9.085-5.264-6.056-8.162-15.71-7.91-26.354.364-15.392 6.14-23.416 22.243-30.9 9.558-4.442 19.156-10.41 29.94-18.62 8.986-6.84 13.415-7.811 46.33-10.164 24.062-1.72 29.808-.845 43.571 6.634 5.187 2.818 13.632 6.716 18.765 8.662 6.195 2.349 12.92 6.435 20 12.155 21.862 17.661 39.59 23.96 70.667 25.108 11 .406 22.4.197 25.333-.465s9.342-2.149 14.241-3.303c10.616-2.502 19.44-3.247 50.426-4.257 26.606-.868 26.041-.645 32.128-12.692 5.164-10.221 5.846-26.008 1.604-37.125-6.385-16.733-5.196-24.11 6.163-38.235 11.135-13.847 32.14-19.455 58.457-15.607 11.02 1.61 28.095 7.723 29.983 10.733.989 1.578 23.25 14.288 36.494 20.836 3.756 1.858 10.956 6.035 16 9.282 5.044 3.248 10.782 6.9 12.75 8.115 1.97 1.215 9.61 7.321 16.98 13.569 7.37 6.248 14.022 11.36 14.783 11.36.761 0 3.92 2.3 7.02 5.112 3.101 2.812 8.938 7.68 12.971 10.818 9.935 7.73 57.15 51.825 75.74 70.736 17.38 17.678 23.518 25.524 45.948 58.733 24.147 35.753 29.526 46.095 32.313 62.133 1.255 7.224 2.43 16.734 2.612 21.134.181 4.4.787 11.841 1.346 16.536l1.016 8.536-6.24-.856c-6.005-.823-6.204-.743-5.313 2.131.51 1.643 2.579 6.286 4.6 10.32 11.344 22.645 18.601 52.33 34.062 139.333 6.836 38.465 7.118 39.531 14.569 54.978 12.27 25.439 19.932 35.561 50.272 66.413 15.176 15.431 32.164 31.931 37.752 36.666 11.901 10.086 18.363 18.506 21.454 27.957 1.736 5.309 1.9 7.525.742 10.065-1.368 3.003-.97 3.649 5.079 8.256 5.23 3.983 6.577 5.811 6.634 8.998.069 3.919-4.219 12.647-6.233 12.688-.56.01-1.825.53-2.81 1.154-1.496.95-1.496 1.612 0 4.06 1.622 2.649 1.41 3.267-2.256 6.57-3.9 3.512-12.094 5.987-40.62 12.266-4.034.888-7.727 1.835-8.208 2.106-1.076.606 4.31 18.51 19.356 64.33C943.529 831.929 950 854.574 950 859.888c0 1.611 2.388 10.584 5.307 19.94 2.92 9.357 6.515 23.366 7.99 31.132 1.475 7.766 4.273 22.22 6.218 32.12 1.945 9.9 4.015 22.069 4.6 27.041.586 4.973 1.403 10.109 1.817 11.413 1.117 3.52 4.678 34.669 4.708 41.188.023 4.87-.415 5.752-3.21 6.453-5.134 1.289-7.71-.189-18.22-10.451-12.048-11.763-23.137-28.992-25.268-39.254-1.114-5.367-1.92-6.944-3-5.865-.811.811-3.431 1.475-5.821 1.475-4.732 0-9.683-4.2-13.355-11.333-1.133-2.2-4.192-6.225-6.797-8.946-4.61-4.813-4.818-5.491-7.753-25.333-1.658-11.213-3.604-23.688-4.322-27.72-2.344-13.153-8.577-44.658-8.916-45.066-.181-.219-1.97.014-3.973.516-4.154 1.043-4.154 1.835-.004 23.216 1.21 6.233 2.532 13.883 2.94 17 .712 5.458.606 5.666-2.882 5.666-2.614 0-5.948-2.232-11.97-8.016-10.09-9.688-14.866-18.082-16.124-28.334-1.02-8.307-2.767-10.67-5.314-7.187-.886 1.212-1.928 2.204-2.316 2.204-1.555 0-22.094-32.166-28.398-44.474-8.416-16.433-14.414-23.686-27.936-33.783-17.064-12.74-33.372-26.745-35.265-30.28-1.548-2.894-2.912-3.362-11.909-4.091-5.588-.454-14.66-2.388-20.16-4.3-10.497-3.648-12.488-3.849-23.404-2.365-4.772.648-9.245.222-15.334-1.462-5.895-1.63-13.622-2.409-24.596-2.478-14.045-.088-16.614-.463-21.026-3.071-4.017-2.374-6.23-2.806-11.01-2.15-5.31.727-6.77.297-12.973-3.817-4.646-3.082-9.338-4.947-13.99-5.562-6.42-.849-7-.704-7 1.74 0 1.466 1.17 3.293 2.602 4.059 2.193 1.174 2.492 2.386 1.901 7.713-.485 4.373.327 10.225 2.633 18.988 1.834 6.966 3.75 16.362 4.258 20.879.85 7.563 1.305 8.46 5.764 11.342l4.841 3.13.379 14.324c.283 10.735.816 14.325 2.127 14.325.961 0 2.834 1.2 4.161 2.666 2.582 2.854 5.496 3.492 6.222 1.364.245-.717 2.3-1.673 4.567-2.125l4.123-.82.845 15.124c.67 11.976 1.301 15.402 3.036 16.457 7.187 4.376 7.46 4.94 5.802 12.01-1.655 7.054-3.14 24.186-3.216 37.081-.044 7.52.14 7.927 6.015 13.333 3.334 3.067 7.234 6.243 8.667 7.057 2.437 1.385 2.614 3.15 2.737 27.333.073 14.22.883 33.053 1.801 41.853 3.22 30.85-.085 94.686-5.163 99.764-.617.617-1.042-18.877-.946-43.321zm-62.246-76.026c-.425-1.064-.741-.748-.805.805-.058 1.406.257 2.193.7 1.75.443-.443.49-1.593.105-2.555zm-174.921-5.117c-.648-2.041-1.34-2.483-2.332-1.49-.993.992-.897 2.03.322 3.5 2.223 2.677 3.19 1.71 2.01-2.01zM236.21 795.513c-1.376-1.376-3.413 1.025-2.62 3.088.72 1.879.94 1.864 2.063-.142.692-1.236.942-2.561.557-2.946zm2.761-17.24c-.443-.442-1.593-.49-2.555-.104-1.064.425-.748.741.805.805 1.406.058 2.193-.257 1.75-.7zm54.215-39.041c4.893-5.107 4.525-11.288-.71-11.894-2.612-.302-4.204.56-6.158 3.333-3.871 5.496-4.956 9.852-2.795 11.221 3.192 2.023 5.888 1.28 9.663-2.66zm-29.292-10.937c4.948-5.88 4.083-13.216-1.559-13.216-2.58 0-8.309 6.479-11.036 12.481-2.167 4.772-2.179 5.315-.152 7.44 2.065 2.167 2.381 2.158 5.747-.163 1.959-1.351 5.109-4.295 7-6.542zm54.353-9.894c1.168-2.562 1.13-4.08-.158-6.487-1.566-2.926-2.036-3.039-6.798-1.633-5.711 1.686-8.22 3.465-4.887 3.465 1.2 0 3.513 1.8 5.14 4 3.6 4.87 4.732 4.981 6.703.655zm238.968-.988c-.114-1.65-.532-3.9-.93-5-1.7-4.71-2.035-10.518-.887-15.415 1.138-4.855.933-5.525-2.715-8.868-2.702-2.476-6.067-3.897-10.677-4.509-5.358-.71-7.155-1.613-8.817-4.426-1.148-1.943-3.907-4.577-6.132-5.854-4.71-2.703-6.744-1.659-8.918 4.578-1.304 3.74-.979 4.47 4.714 10.556 5.241 5.603 6.492 6.335 8.756 5.123 1.707-.914 2.405-2.316 1.974-3.966-.787-3.008.312-3.23 3.702-.752 1.888 1.38 2.286 2.883 1.707 6.447-.835 5.146-.132 6.86 3.34 8.141 1.284.474 2.334 2.214 2.334 3.867 0 1.865 2.148 4.893 5.666 7.985 6.694 5.881 7.152 6.02 6.883 2.093zm-266.953-6.838c1.228.76 3.665-1.611 3.717-3.615.01-.432-1.606-1.527-3.592-2.432-3.102-1.413-3.855-1.315-5.323.693-1.425 1.948-1.328 2.76.578 4.868 1.318 1.455 2.493 1.916 2.77 1.084.265-.794 1.097-1.063 1.85-.598zM286 708.193c0-1.034 1.188-1.969 2.64-2.078 2.998-.226 4.759 1.688 2.715 2.951-.745.46-1.355.129-1.355-.738 0-1.174-.51-1.152-2 .085-1.617 1.342-2 1.3-2-.22zm71.764-9.293c3.063-3.765 5.57-7.923 5.57-9.238 0-2.5-3.335-6.583-5.377-6.583-4.213 0-14.25 17.905-11.735 20.935 2.67 3.216 5.948 1.763 11.542-5.114zm166.903 6.226c0-.34-1.35-1.274-3-2.073-2.881-1.396-2.897-1.372-.412.62 2.72 2.179 3.412 2.474 3.412 1.453zm-212.02-3.713c-.042-3.344-2.123-4.626-8.955-5.513-6.263-.813-6.884-.67-6.088 1.403.548 1.428 1.089 1.699 1.419.71.887-2.663 2.637-1.802 3.525 1.733.692 2.757 1.639 3.333 5.477 3.333 2.835 0 4.634-.648 4.621-1.666zm25.929-7.465c-.607-.716-7.153 4.324-7.2 5.543-.024.594.557.708 1.29.255.734-.453 1.337-.039 1.341.921 0 .96 1.122-.054 2.485-2.254 1.362-2.2 2.3-4.21 2.084-4.465zm72.733-4.578c.013-1.307-1.282-2.86-2.88-3.45-2.76-1.022-2.683-1.185 1.539-3.291 2.443-1.219 5.285-2.216 6.316-2.216 1.03 0 1.533-.552 1.116-1.226-.417-.674.245-2.229 1.47-3.454 3.12-3.119.405-4.607-8.45-4.633-8.8-.026-13.753 1.823-13.753 5.135 0 1.586-1.216 2.86-3.204 3.36-2.741.688-3.271 1.738-3.667 7.267-.543 7.586 1.082 7.86 8.182 1.375 4.906-4.481 7.303-4.069 2.996.515-1.724 1.835-2.768 4.628-2.695 7.207l.12 4.21 6.443-4.211c3.675-2.403 6.454-5.233 6.467-6.588zm49.024-.016c4.949-5.93 5.354-8.719 1.89-12.997l-2.444-3.018-3.654 4.792c-3.314 4.345-8.792 16.514-8.792 19.532 0 2.507 4.735 2.223 6.667-.4 1.1-1.494 3.95-5.053 6.333-7.91zM511 681.32c3.26-4.79 3.986-12.722 1.4-15.308-1.917-1.917-8.242-2.169-7.076-.282.479.775-.1.967-1.406.466-1.93-.74-2.1-.145-1.308 4.545.568 3.365.374 5.73-.516 6.28-1.571.97-1.946 6.427-.538 7.835 2.226 2.227 6.648.571 9.444-3.536zm-24.507-2.575c1.464-5.462 1.016-7.65-1.378-6.731-1.492.572-1.903.34-1.255-.709.53-.858 1.829-1.56 2.885-1.56 1.057 0 1.922-.78 1.922-1.733 0-2.317-2.734-4.934-5.156-4.934-1.075 0-1.553.403-1.062.894.492.491-.048 2.33-1.198 4.086-1.41 2.151-1.799 4.526-1.193 7.284.57 2.597 1.265 3.499 1.901 2.469.747-1.207 1.202-1.104 1.78.403.428 1.114.062 2.317-.814 2.673-.921.375-.675.692.586.753 1.198.058 2.54-1.245 2.982-2.895zm67.016-6.052l.176-9.042-4.505.526c-7.032.82-10.674-.66-12.506-5.082-1.176-2.84-2.573-4.017-4.767-4.017-1.707 0-4.721-1.5-6.7-3.333-3.54-3.28-7.207-4.407-7.207-2.214 0 .616 1.573 1.836 3.496 2.713 3.155 1.437 3.416 2.1 2.666 6.79-.716 4.479-.45 5.319 1.932 6.074 1.52.483 5.931 3.457 9.802 6.61 7.164 5.836 13.7 9.881 16.104 9.969.746.027 1.41-3.934 1.51-8.994zm-185.144-1.007c.93-.575-1.482-4.608-2.755-4.608-1.648 0-7.61 5.308-7.61 6.775 0 .753 8.528-1.03 10.365-2.167zm97.113-11.508c2.383-.862 4.623-2.675 4.977-4.03.5-1.908-1.76-8.695-3.808-11.44-.557-.746-8.04 2.614-10.224 4.591-1.854 1.678-1.984 2.658-.742 5.574 1.74 4.085 3.654 6.872 4.721 6.872.408 0 2.692-.705 5.076-1.567zm25.323-2.12c2.467-1.648 4.134-5.988 5.042-13.131.995-7.821-.96-10.694-6.353-9.34-2.08.522-3.456.17-3.905-1-.38-.993-1.95-2.134-3.487-2.536-2.23-.583-3.483.446-6.211 5.101-4.081 6.964-3.88 11.738.52 12.362 1.69.24 3.94-.284 5-1.163 1.06-.88 1.926-1.03 1.926-.333 0 .696 1.8 1.001 4 .678 2.402-.352 4 .007 4 .898 0 .816-.75 1.485-1.666 1.486-.917.001-3.36 1.457-5.427 3.236l-3.76 3.234 3.76.564c2.068.31 4.06.646 4.427.744.366.099 1.327-.261 2.134-.8zm334.657-79.66c-1.902-5.357-3.458-10.995-3.458-12.53 0-1.534-.848-2.79-1.884-2.79-1.898 0-1.86.253 1.624 10.667.368 1.1.764 2.6.879 3.333.116.734 1.224 3.565 2.462 6.291 1.239 2.726 2.322 6.026 2.407 7.333.142 2.181.207 2.173.791-.094.35-1.359-.92-6.853-2.821-12.21zm-18.06-183.986c.057.733.636.014 1.285-1.598 1.373-3.41-3.863-26.808-5.431-24.27-.63 1.018-1.272.573-1.863-1.29-1.064-3.353-5.763-3.824-6.963-.696-1.271 3.313 4.992 27.07 6.94 26.323.893-.342 2.033.445 2.534 1.75.776 2.022 1.094 2.082 2.151.41.683-1.08 1.289-1.363 1.347-.63zm-6.568-36.234c-1.572-2.702-1.952-1.837-.665 1.516.457 1.191 1.112 1.885 1.455 1.542.344-.343-.012-1.72-.79-3.058zM88.373 114.84c1.209-1.208 2.313-1.176 4.767.137 2.39 1.279 3.885 1.339 5.94.24 1.51-.809 4.249-1.47 6.087-1.47s3.738-.64 4.221-1.422c.518-.838 4.25-1.25 9.08-1 6.587.34 8.199.029 8.199-1.578 0-1.516-2.364-2.21-9.78-2.873-10.836-.968-15.744-4.006-16.48-10.203-.3-2.511-1.465-3.698-4.407-4.486-5.889-1.577-11.714.897-17.893 7.6-5.942 6.446-7.061 11.77-3.107 14.773 2.912 2.21 11.27 2.387 13.373.283zm77.386-28.773c.326-2.28-.235-2.987-2.375-2.987-3.006 0-4.864 2.939-3.378 5.344 1.492 2.413 5.295.855 5.754-2.357z"/></symbol><symbol viewBox="0 0 114.872 169.606" id="10" xmlns="http://www.w3.org/2000/svg"><path d="M76.5 166.135c3.448-5.08 5.214-14.424 3.794-20.064-.839-3.332-6.747-17.202-8.673-20.36-.092-.151-.906.01-1.81.356-2.391.918-2.02 4.604 1.106 10.977l2.749 5.605-3.5 2.997c-9.681 8.293-16.98 15.494-17.063 16.838-.064 1.029-.251 1.107-.597.25-.278-.688-1.142-1.25-1.921-1.25-3.17 0-1.032-3.829 5.583-10 7.771-7.25 8.303-8.904 4.54-14.102-3.487-4.817-5.953-9.589-8.087-15.648-1.759-4.996-1.766-5.48-.146-10 .937-2.613 1.7-5.207 1.698-5.766-.003-.559-3.581-4.664-7.952-9.124-6.14-6.264-8.905-10.07-12.163-16.734-2.855-5.84-4.77-8.626-5.931-8.626-.943 0-2.274-.675-2.96-1.5-1.895-2.285-2.84-1.813-3.186 1.591l-.313 3.092-2.71-2.342c-4.417-3.815-7.853-9.066-7.227-11.041.678-2.135-1.749-2.487-3.403-.493-2.108 2.54-4.14 12.617-3.096 15.361.661 1.74.634 2.991-.086 3.858-.904 1.09-1.756 1.186-4.85.55-.205-.042.187-.751.872-1.576 1.007-1.214.973-1.5-.18-1.5-2.066 0-.723-8.931 2.464-16.38 2.7-6.31 3.947-7.581 7.466-7.605 1.88-.013 2.25-.563 2.25-3.346 0-4.669 3.422-6.537 7.814-4.265 4.392 2.27 5.332 2.054 9.466-2.18 2.512-2.572 4.487-6.13 6.203-11.174 1.384-4.07 2.517-7.723 2.517-8.116 0-.78-5.34-1.848-11.193-2.24-4.347-.29-4.6-.488-5.744-4.473-1.043-3.639.509-5.374 8.725-9.759 2.908-1.552 5.089-3.34 4.845-3.975-.503-1.313-.031-1.44 6.867-1.851 2.75-.164 6.012-.84 7.25-1.502 2.585-1.384 2.907-.386.782 2.424-1.383 1.829-2.17 4.413-.983 3.226.302-.302 2.321 1.04 4.486 2.985 4.038 3.625 9.73 13.475 8.101 14.019-.5.166-.016 2.645 1.076 5.507 2.458 6.442 3.214 11.705 1.68 11.705-.657 0-.93 1.026-.653 2.47.26 1.358.087 2.231-.384 1.94-.47-.29-.855.623-.855 2.03 0 1.694-.549 2.56-1.623 2.56-1.282 0-1.377.295-.453 1.408.757.912.94 3.131.52 6.297-.547 4.126-.189 5.895 2.297 11.342 2.784 6.1 5.014 8.698 14.872 17.335 2.884 2.526 4.766 5.391 6.294 9.583 2.499 6.853 4.303 9.035 7.473 9.035 2.843 0 4.703 1.505 7.971 6.455 1.437 2.175 3.633 4.521 4.88 5.214 1.976 1.097 2.028 1.264.396 1.295-1.587.03-1.673.275-.57 1.605.717.863 2.074 1.368 3.017 1.122 1.155-.303 1.634.082 1.471 1.18-.312 2.102 1.574 5.129 3.195 5.129 1.735 0 1.579 1.99-.321 4.09-1.449 1.6-1.417 1.912.375 3.703 2.234 2.235 2.581 6.974.652 8.903-1.341 1.342-7.298 1.718-11.089.701-3.497-.938-4.171-10.397-.74-10.397.76 0 1.383-.477 1.383-1.06 0-.582-.4-.812-.887-.51-.488.301-.846-.01-.796-.691.144-1.937-7.807-18.08-9.659-19.612-1.466-1.213-1.658-1.09-1.658 1.058 0 1.336-1.56 5.532-3.469 9.323-3.783 7.52-3.786 8.443-.039 17.012 2.02 4.62 2.083 5.338.788 9-.774 2.189-2.433 7.805-3.686 12.48l-2.279 8.5-3.669.31-3.669.312zm25.24-28.578c0-1.06-.354-1.708-.786-1.44-.433.266-.786 1.133-.786 1.926 0 .792.353 1.44.786 1.44.432 0 .785-.866.785-1.926zM20.55 68.932c.34-.89.173-1.292-.394-.941-.543.336-.988 1.034-.988 1.552 0 1.438.717 1.121 1.381-.611zm.88-15.647c-3.433-3.434-3.664-3.44-4.68-.133-.706 2.302.439 2.984 5.399 3.216 2.476.115 2.475.11-.718-3.083z"/></symbol><symbol viewBox="0 0 3141.424 1872.961" id="7" xmlns="http://www.w3.org/2000/svg"><path d="M1518.835 1841.96c-27.867-16.987-51.27-31.237-52.005-31.667-1.041-.61 5.165-55.249 28-246.52 16.136-135.157 29.338-246.616 29.338-247.689 0-1.704-.944-1.95-7.467-1.95-4.106 0-7.466.262-7.466.583 0 1.713-77.01 460.782-77.356 461.127-.94.94-86.911-56.096-86.911-57.66 0-1.112 100.886-429.619 101.982-433.166.538-1.74-.118-1.886-7.166-1.6l-7.759.316-55.182 208.364c-30.35 114.601-55.434 208.617-55.741 208.924-.444.444-83.042-56.393-86.35-59.42-.486-.444 31.142-87.387 70.285-193.205 39.143-105.818 71.396-193.237 71.674-194.263.458-1.692-.546-1.867-10.704-1.867-9.668 0-11.309.255-11.923 1.856-21.046 54.845-142.958 368.007-143.494 368.6-.527.583-84.234-56.098-92.524-62.652-.13-.103 39.897-66.16 88.948-146.795 49.05-80.635 89.395-147.381 89.654-148.325.336-1.227-1.998-3.162-8.204-6.8l-8.673-5.085-2.704 2.534c-1.488 1.393-12.143 12.739-23.678 25.212-24.277 26.249-21.834 26.035-23.07 2.016-.89-17.275-1.02-17.771-4.643-17.724-2.503.032-5.667 3.866-25.261 30.604l-22.4 30.566-.68-6.337c-.373-3.485-1.021-10.602-1.44-15.815l-.763-9.479-15.215 15.188c-13.751 13.727-15.273 14.947-15.806 12.679-.324-1.38-1.416-7.79-2.427-14.243-1.01-6.453-2.13-12.07-2.487-12.481-.358-.411-8.034 6.309-17.058 14.933l-16.407 15.681 1.278 14.933 1.279 14.934 12.73 23.256c7 12.79 12.727 23.59 12.726 24 0 .41-7.898 13.91-17.546 30-9.649 16.09-17.299 29.65-17 30.133 1.185 1.918 9.112.676 20.732-3.248 11.71-3.955 22.35-6.318 22.35-4.964 0 .353-.92 2.422-2.045 4.599-3.148 6.09-10.386 12.339-20.355 17.57l-9.066 4.759-30.538 3.435-30.538 3.435-4.662-2.369c-4.079-2.072-21.446-14.998-20.876-15.536.118-.111 6.934-.975 15.147-1.919 8.213-.944 17.242-2.415 20.064-3.269 13.35-4.039 21.84-11.553 28.343-25.082 4.65-9.676 5.581-19.7 2.9-31.21-4.313-18.505-15.1-30.092-33.174-35.63-8.99-2.754-40.729-2.746-53.866.015-27.503 5.777-54.385 14.984-82.134 28.129-11.067 5.242-14.455 7.439-19.93 12.922-8.775 8.786-12.535 15.693-18.96 34.827-7.873 23.45-8.266 22.894-9.937-14.116l-1.36-30.13 4.222-11.205c7.861-20.862 20.288-37.773 33.867-46.09l5.501-3.37 1.432 8.195 1.432 8.197 9.6.327c12.562.429 37.662-2.447 50.522-5.788 5.619-1.46 10.378-2.817 10.577-3.016.445-.445-12.396-18.492-13.755-19.332-.539-.333-7.331-1.338-15.095-2.233-18.745-2.161-38.657-2.162-48.607 0l-7.825 1.698-5.955-6.431c-11.85-12.8-22.063-14.592-34.857-6.118-2.824 1.871-7.259 6.077-9.854 9.347-6.658 8.39-14.926 25.578-17.627 36.641-1.318 5.4-2.773 9.2-3.438 8.978-.772-.257-1.24-8.635-1.419-25.362l-.265-24.978 25.003-20.653c18.867-15.584 29.008-23.092 41.317-30.593 8.972-5.468 16.47-9.783 16.663-9.59.193.192-.665 6.04-1.906 12.993-1.242 6.954-2.352 13.355-2.468 14.225-.176 1.321 5.585 2.048 34.989 4.418 19.36 1.56 35.368 2.68 35.574 2.488.206-.19-11.217-13.044-25.385-28.562-23.107-25.31-26.384-28.491-31.84-30.905-12.893-5.706-23.96-6.156-35.416-1.443-3.226 1.328-15.407 9.261-27.067 17.63-14.044 10.08-21.56 14.859-22.261 14.157-1.668-1.668 72.125-87.455 77.003-89.519 5.822-2.463 21.701-2.972 29.597-.948 7.561 1.938 50.428 17.996 50.448 18.899.01.328-12.94 4.648-28.772 9.6-15.832 4.951-28.776 9.243-28.765 9.536.01.294 30.31 16.092 67.334 35.108l67.314 34.575 25.539-12.708c14.046-6.99 25.735-13.015 25.975-13.39.24-.375-8.435-3.975-19.276-8s-19.702-7.558-19.691-7.851c.01-.294 11.352-6.774 25.204-14.4 13.852-7.627 27.618-15.254 30.59-16.949l5.406-3.081-15.395-7.713-15.395-7.712 5.306-2.638c2.918-1.451 15.505-7.338 27.97-13.082 22.272-10.263 22.681-10.51 23.663-14.3.55-2.123 2.273-9.259 3.83-15.859l2.83-12h28.462l1.736-6.133a1807.78 1807.78 0 0 1 2.263-7.944c.607-2.084 1.023-1.956-25.457-7.869-9.832-2.195-17.736-4.13-17.565-4.302.171-.17 18.535-7.014 40.81-15.208 22.273-8.194 41.611-15.32 42.972-15.838 2.324-.884 1.488-1.963-13.772-17.761l-16.245-16.82 2.571-2.49c1.414-1.37 43.372-38.358 93.238-82.194 49.867-43.837 90.825-80.118 91.018-80.625.193-.507-12.527-20.604-28.267-44.659l-28.617-43.736H1321.5c-16.133.001-155.333 1.19-309.333 2.643-154 1.452-294.4 2.613-312 2.58l-32-.062-64.709-78.591-64.708-78.592 347.108-.268c266.414-.207 347.109-.563 347.109-1.532 0-.694-2.51-10.533-5.576-21.863l-5.576-20.601-360.008-.269-360.008-.268-65.174-78.933-65.174-78.933 372.55-.534 372.55-.533-17.792-21.585-17.792-21.585-373.003-.015-373.003-.015-71.953-87.2-71.954-87.2 391.804-.533 391.803-.533-17.78-21.58-17.78-21.58-392.252-.02-392.251-.02-76.549-85.09C35.948 41.976.843 2.856.037 1.842-1.349.097 32.703 0 643.504 0h644.93v16.977l-7.785 12.045c-66.228 102.462-84.315 220.547-52.404 342.126 20.604 78.496 61.687 154.916 112.566 209.385L1351.52 592l6.59-.023 6.59-.023 80.457-174.34 80.457-174.34 4.876-.796c7.901-1.289 74.958-.889 92.344.551 19.923 1.65 42.265 4.015 57.6 6.098 15.029 2.04 75.631 11.365 76.052 11.701.176.14-4.144 9.905-9.6 21.699l-9.919 21.443-36.533.015c-20.094.01-36.534.28-36.534.605 0 .325 2.725 4.285 6.056 8.8 25.582 34.684 42.356 45.898 57.609 38.514 2.532-1.226 6.067-3.986 7.854-6.133 3.246-3.9 11.335-19.079 13.517-25.364l1.155-3.326 19.038-.666c34.198-1.196 93.171-2.054 93.171-1.356 0 .655-72.116 116.62-73.56 118.286-.386.446-4.252-9.301-8.59-21.66-7.124-20.297-8.1-22.424-10.069-21.97-1.2.275-22.963 4.982-48.364 10.46-37.602 8.108-46.098 10.256-45.724 11.558.252.88 22.529 41.68 49.504 90.667l49.044 89.067 6.952.312 6.952.313 11.52-12.58c55.673-60.786 97.52-142.673 116.024-227.043 6.17-28.134 8.849-48.555 10.247-78.12 4.13-87.357-18.7-170.704-67.283-245.638l-7.32-11.289V0h1289.79l-2.526 3.002c-1.389 1.65-36.52 40.77-78.07 86.933l-75.543 83.932h-784.559l-17.796 21.6-17.796 21.6 391.517.268c215.334.147 391.517.539 391.517.87 0 .331-32.257 39.69-71.681 87.465l-71.682 86.863H2058.86l-17.796 21.6-17.796 21.6 372.405.269c204.823.147 372.245.654 372.05 1.126-.195.471-29.557 36.23-65.248 79.465l-64.893 78.607h-359.907c-197.949 0-359.907.218-359.907.485 0 .544-10.16 37.837-11.205 41.133-.668 2.102 1.01 2.113 346.899 2.38l347.57.269-64.932 78.666-64.932 78.667-32.167-.014c-17.691-.01-157.686-1.201-311.1-2.652-153.413-1.451-292.435-2.645-308.937-2.653l-30.004-.014-28.033 42.934c-15.418 23.613-28.433 43.459-28.923 44.102-.701.92 101.27 91.688 184.164 163.931l3.2 2.79-16.482 16.55c-9.066 9.103-16.251 16.782-15.968 17.065.372.373 66.225 24.72 84.07 31.082.817.291 1.27.746 1.005 1.01-.264.264-9.705 2.586-20.981 5.16-11.276 2.573-20.765 4.942-21.086 5.263-.322.321.331 3.868 1.45 7.882l2.035 7.298 14.31.533 14.31.534 3.735 15.162c2.054 8.34 4.215 15.595 4.802 16.125.587.53 12.947 6.407 27.467 13.062 14.52 6.654 26.4 12.48 26.4 12.946 0 .467-6.48 4.078-14.4 8.025s-14.385 7.425-14.367 7.728c.018.303 13.458 7.958 29.867 17.01 16.408 9.052 29.833 16.764 29.833 17.138 0 .374-8.632 3.946-19.183 7.938-10.55 3.993-18.99 7.56-18.754 7.929.236.369 11.904 6.38 25.93 13.359l25.5 12.689 66.853-34.493c36.77-18.97 66.854-34.79 66.854-35.152 0-.363-12.928-4.711-28.728-9.663s-28.4-9.297-28-9.656c1.487-1.332 43.644-16.96 50.288-18.642 7.513-1.902 21.899-1.637 28.973.535 3.256.999 9.785 8.111 41.377 45.075 23.466 27.456 37.135 44.266 36.507 44.895-.629.628-9.415-4.989-23.465-15.002-13.857-9.875-24.419-16.636-27.573-17.651-11.91-3.832-21.644-3.204-33.609 2.165-5.895 2.646-8.68 5.334-32.343 31.22-14.24 15.578-25.817 28.403-25.726 28.5.091.096 16.126-1.098 35.632-2.654 29.715-2.37 35.467-3.091 35.467-4.444 0-.889-.96-6.653-2.133-12.811-1.174-6.158-2.134-12.036-2.134-13.063 0-1.42 4.057.618 16.978 8.531 12.945 7.928 22.7 15.149 41.067 30.395l24.089 19.996v25.693c0 19.195-.317 25.587-1.253 25.275-.689-.23-1.84-3.27-2.56-6.756-3.762-18.242-14.989-38.187-26.76-47.542-4.904-3.896-14.122-6.685-18.778-5.68-6.042 1.304-11.21 4.582-17.628 11.183l-6.247 6.424-7.387-1.773c-4.93-1.184-11.824-1.76-20.72-1.73-14.101.046-42.684 2.88-43.678 4.33-.324.472-3.402 4.814-6.84 9.649-3.437 4.835-6.077 8.938-5.866 9.119.855.732 11.423 3.751 16.917 4.833 19.836 3.905 52.587 5.665 53.655 2.883.302-.788.89-4.154 1.305-7.48.416-3.327 1.188-6.316 1.717-6.643 2.746-1.697 19.692 13.024 26.502 23.023 5.444 7.993 9.834 16.928 13.625 27.733l3.181 9.067-1.323 29.64c-.727 16.304-1.663 29.983-2.08 30.4-1.408 1.408-3.608-3.117-7.584-15.602-5.744-18.04-9.457-25.076-17.981-34.076-6.501-6.864-8.858-8.503-19.734-13.719-28.54-13.689-55.906-23.047-84.073-28.752-12.706-2.573-38.484-3.144-48.277-1.069-24.656 5.224-37.231 20.176-40.016 47.578-.605 5.953-.308 7.985 2.098 14.372 3.554 9.435 7.94 16.27 14.056 21.908 8.158 7.52 17.39 10.47 40.075 12.81l12.48 1.286-7.68 6.307c-4.224 3.469-10.153 7.527-13.176 9.02l-5.496 2.712-30.237-3.453c-29.742-3.398-30.368-3.52-38.237-7.44-11.476-5.717-16.562-9.784-20.227-16.174-1.77-3.088-3.224-5.98-3.23-6.428-.018-1.441 8.732.43 22.144 4.737 12.527 4.022 21.338 5.069 20.842 2.476-.112-.587-8.1-14.173-17.752-30.191l-17.548-29.125 13.057-23.675 13.056-23.676 1.241-14.933 1.24-14.933-16.278-15.68c-8.953-8.625-16.57-15.705-16.927-15.734-.357-.029-1.745 6.667-3.085 14.88-1.34 8.214-2.638 14.934-2.885 14.934-.248 0-6.966-6.734-14.93-14.963-7.965-8.23-14.721-14.723-15.014-14.43-.293.293-1.074 7.386-1.735 15.763L1962 1326.4l-11.455-15.467c-6.3-8.507-16.516-22.307-22.702-30.667-9.861-13.327-11.619-15.2-14.266-15.2h-3.02l-.764 13.067c-.42 7.187-1.078 15.897-1.462 19.356l-.697 6.29-23.361-25.223c-12.849-13.873-23.752-25.223-24.23-25.223-.647 0-15.548 8.54-17.82 10.213-.19.14 40.01 66.612 89.333 147.716 49.323 81.104 89.678 147.825 89.678 148.27 0 .785-88.76 62.64-91.096 63.481-.693.25-30.569-75.352-73.171-185.16l-72-185.583h-22.704l3.057 8.267c99.935 270.248 140.594 380.47 140.41 380.636-4.384 3.945-86.626 60.03-87.153 59.433-.423-.478-25.152-93.03-54.954-205.67-29.802-112.64-54.614-206.36-55.138-208.266l-.952-3.467h-7.532c-7.275 0-7.512.082-6.94 2.4 13.094 53.049 101.866 433.384 101.282 433.93-1.72 1.61-86.71 57.433-86.71 56.954 0-1.408-76.894-459.89-77.327-461.066-.365-.99-2.555-1.293-7.724-1.067l-7.214.316.353 3.733c.194 2.054 13.446 113.174 29.45 246.934 21.397 178.858 28.782 243.53 27.912 244.447-.65.686-21.583 13.592-46.516 28.68-24.933 15.09-47.863 29.048-50.954 31.02-3.091 1.973-5.731 3.536-5.867 3.475-.135-.062-23.046-14.01-50.912-30.996z"/></symbol><symbol viewBox="0 0 197.212 197.216" id="logo" xmlns="http://www.w3.org/2000/svg"><path d="M85.64 196.35c-8.982-1.109-26.371-6.73-34-10.99C5.32 159.494-12.92 103.301 9.65 56.01c25.61-53.654 93.499-72.584 143.157-39.916 9.385 6.174 22.1 18.888 28.273 28.273 25 38.002 20.574 88.354-10.706 121.793-11.287 12.065-24.357 20.326-40.734 25.747-15.428 5.106-28.189 6.395-44 4.443zm39-11.293c15.41-5 25.172-10.763 36.36-21.462 11.71-11.197 18.93-22.879 24.142-39.061 2.173-6.747 2.841-11.079 3.24-21 .694-17.258.536-17.636-4.139-9.925-14.185 23.394-35.338 44.351-55.104 54.593-13.437 6.963-20.998 8.837-35.5 8.8-13.867-.037-20.467-1.697-29.96-7.539l-4.951-3.046-9.553 3.578c-5.254 1.968-11.8 4.096-14.545 4.73-2.745.634-4.99 1.451-4.99 1.816 0 1.158 13.313 13.49 18 16.671 16.649 11.306 31.447 15.439 53.5 14.942 13.09-.296 16.08-.69 23.5-3.097zm-15.065-40.11c24.549-5.937 53.581-31.17 71.033-61.739l5.104-8.939-1.676-5.118c-4.23-12.92-12.29-25.403-23.035-35.679-11.227-10.735-22.974-17.569-37.898-22.046-10.025-3.008-31.185-3.73-42.553-1.454-9.03 1.809-20.574 6.364-29.73 11.731-7.325 4.295-24.717 21.686-29.011 29.012C11.653 68.04 8.143 82.1 8.896 102.445c.555 15.01 2.156 21.688 8.473 35.339 3.225 6.97 3.867 7.75 6.39 7.75 3.179 0 17.451-3.221 23.192-5.234l3.81-1.337-3.161-3.965c-9.742-12.213-14.7-32.39-12.082-49.167 4.495-28.797 26.37-55.777 51.442-63.448 10.256-3.138 22.14-2.373 31.014 1.995 20.822 10.25 25.476 36.131 11.116 61.81-9.522 17.027-32.857 39.632-52.2 50.569-2.888 1.632-5.25 3.314-5.25 3.736 0 .8 5.96 3.232 12 4.896 5.517 1.52 18.752 1.294 25.935-.443zm-41.157-13.31c24.855-12.587 49.569-37.103 57.354-56.896 1.8-4.577 2.258-7.787 2.306-16.207.054-9.18-.244-11.116-2.367-15.395-2.932-5.91-7.658-10.81-13.348-13.841-3.478-1.853-5.817-2.251-13.245-2.257-8.156-.007-9.651.303-15.592 3.228-11.484 5.653-20.434 15.358-27.912 30.265-10.845 21.62-12.45 42.106-4.581 58.5 2.863 5.964 9.76 15.5 11.213 15.5.247 0 3.025-1.304 6.172-2.898z"/></symbol></svg>